<?xml version="1.0" encoding="utf-8"?>
<!-- Generator: Adobe Illustrator 24.0.1, SVG Export Plug-In . SVG Version: 6.00 Build 0)  -->
<svg version="1.1" id="Layer_1" xmlns="http://www.w3.org/2000/svg" xmlns:xlink="http://www.w3.org/1999/xlink" x="0px" y="0px"
	 viewBox="0 0 450 320" style="enable-background:new 0 0 450 320;" xml:space="preserve">
<style type="text/css">
	.st0{display:none;}
	.st1{display:inline;}
	.st2{fill:#293843;}
	.st3{display:inline;fill:#293843;}
	.st4{font-family:'Roboto-Black';}
	.st5{font-size:10.6051px;}
	.st6{fill:#0E3E56;}
	.st7{display:none;fill:#FFC937;}
	.st8{fill:#FFFFFF;}
	.st9{fill:#434343;}
	.st10{font-family:'Antonio-Light';}
	.st11{font-size:10.4329px;}
	.st12{font-family:'Antonio-Bold';}
	.st13{font-size:16.4507px;}
	.st14{letter-spacing:1;}
	.st15{display:inline;fill:none;}
	.st16{font-size:3.3646px;}
	.st17{display:inline;fill:none;stroke:#010101;stroke-miterlimit:10;}
	.st18{fill:url(#SVGID_1_);}
	.st19{fill:#FDE596;}
	.st20{fill:#959494;stroke:#434343;stroke-width:2;stroke-miterlimit:10;}
	.st21{fill:#4E4E4E;stroke:#434343;stroke-width:2;stroke-miterlimit:10;}
	.st22{fill:#E02926;}
	.st23{fill:#023246;stroke:#434343;stroke-width:2;stroke-miterlimit:10;}
	.st24{fill:#7D7D7D;stroke:#434343;stroke-width:2;stroke-miterlimit:10;}
	.st25{fill:#40C2E5;stroke:#434343;stroke-width:2;stroke-miterlimit:10;}
	.st26{opacity:8.000000e-02;}
	.st27{fill:#010101;stroke:#434343;stroke-width:2;stroke-miterlimit:10;}
	.st28{fill:#F16D24;}
	.st29{fill:#F3F3F3;stroke:#818181;stroke-miterlimit:10;}
	.st30{opacity:0.43;fill:none;stroke:#F16D24;stroke-width:2;stroke-linecap:round;stroke-miterlimit:10;}
	.st31{fill:none;stroke:#818181;stroke-miterlimit:10;}
	.st32{fill:#FFFFFF;stroke:#818181;stroke-miterlimit:10;}
	.st33{fill:#FFFFFF;stroke:#1D98C2;stroke-miterlimit:10;}
	.st34{fill:none;stroke:#1D98C2;stroke-miterlimit:10;}
	.st35{fill:#1896BA;}
	.st36{fill:none;stroke:#1896BA;stroke-miterlimit:10;}
	.st37{fill:#FFFFFF;stroke:#1896BA;stroke-miterlimit:10;}
	.st38{display:inline;opacity:0.11;}
	.st39{font-family:'Amsterdam-Four';}
	.st40{font-size:26.3362px;}
	.st41{display:inline;opacity:0.21;fill:#010101;}
	.st42{font-size:14.2011px;}
	.st43{display:inline;fill:#0E3E56;}
	.st44{fill:#010101;}
	.st45{font-size:11.0553px;}
	.st46{fill:#F89938;}
	.st47{font-family:'Bebas-Regular';}
	.st48{font-size:23.092px;}
	.st49{fill:#1B8943;}
	.st50{fill:#F3F3F3;stroke:#818181;stroke-width:0.25;stroke-miterlimit:10;}
	.st51{opacity:0.43;fill:none;stroke:#F16D24;stroke-width:0.25;stroke-linecap:round;stroke-miterlimit:10;}
	.st52{fill:none;stroke:#818181;stroke-width:0.25;stroke-miterlimit:10;}
	.st53{fill:#FFFFFF;stroke:#818181;stroke-width:0.25;stroke-miterlimit:10;}
	.st54{fill:#FFFFFF;stroke:#1D98C2;stroke-width:0.25;stroke-miterlimit:10;}
	.st55{fill:none;stroke:#1D98C2;stroke-width:0.25;stroke-miterlimit:10;}
	.st56{fill:none;stroke:#1896BA;stroke-width:0.25;stroke-miterlimit:10;}
	.st57{fill:#FFFFFF;stroke:#1896BA;stroke-width:0.25;stroke-miterlimit:10;}
	.st58{font-size:13.4507px;}
	.st59{font-size:8.5319px;}
	.st60{font-size:5.6462px;}
	.st61{font-size:22px;}
	.st62{font-size:27.425px;}
	.st63{font-family:'LemonMilkbold';}
	.st64{font-size:20.7194px;}
</style>
<g id="XMLID_4356_">
	<g id="XMLID_1942_" class="st0">
		<g id="XMLID_4357_" class="st1">
			<path id="XMLID_4380_" class="st2" d="M-76.5,214.7l-8.3-2.8c-0.6-0.2-1.3,0-1.8,0.4l-15.6,15.6c-0.7,0.7-0.7,1.8,0,2.5l3.1,3.1
				c0.3,0.3,0.8,0.5,1.2,0.5c0.1,0,0.2,0,0.3,0l6.9-1.4l5.6,5.6c0,0,0,0,0,0c0,0,0,0,0,0l5.6,5.6l-1.4,6.9c-0.1,0.6,0.1,1.2,0.5,1.6
				l3.1,3.1c0.3,0.3,0.8,0.5,1.2,0.5c0.5,0,0.9-0.2,1.2-0.5l15.6-15.6c0.5-0.5,0.6-1.2,0.4-1.8l-2.8-8.3l0.8-0.8
				c10.6-10.6,17-19.2,19.2-25.7c1.8-5.4,0-7.7-0.4-8.1c-0.4-0.4-2.6-2.2-8.1-0.4c-6.5,2.2-15.1,8.6-25.7,19.2L-76.5,214.7z
				 M-98.5,229.2l13.6-13.6l5.6,1.9l-11.7,11.7l-6.4,1.3L-98.5,229.2z M-64.3,232.5l1.9,5.6L-76,251.7l-1.2-1.2l1.3-6.4l10.5-10.5
				L-64.3,232.5z M-50,198.5c3.6-1.5,5.2-1,5.6-0.8c0,0.1,0.1,0.4,0.1,0.4c0.1,0.7,0.2,1.9-0.5,4c-0.5,1.5-1.4,3.5-2.9,5.9l-7-7
				C-53.2,200-51.5,199.1-50,198.5z M-57.8,203l8,8c-2.8,4-7.1,9-13.4,15.4l-1.6,1.6l0,0l-12.8,12.8l-3.7-3.7l12.8-12.8
				c0.7-0.7,0.7-1.8,0-2.5c-0.7-0.7-1.8-0.7-2.5,0l-12.8,12.8l-3.7-3.7l12.8-12.8l0,0l1.6-1.6C-68.8,212-63.2,206.8-57.8,203z"/>
			<path id="XMLID_4386_" class="st2" d="M-61.9,221.3c1.6,0,3.2-0.6,4.4-1.8c1.2-1.2,1.8-2.7,1.8-4.4c0-1.7-0.6-3.2-1.8-4.4
				c-2.4-2.4-6.3-2.4-8.7,0c-1.2,1.2-1.8,2.7-1.8,4.4c0,1.7,0.6,3.2,1.8,4.4C-65.1,220.7-63.5,221.3-61.9,221.3z M-63.8,213.3
				c0.5-0.5,1.2-0.8,1.9-0.8c0.7,0,1.4,0.3,1.9,0.8c0.5,0.5,0.8,1.2,0.8,1.9s-0.3,1.4-0.8,1.9c-1,1-2.7,1-3.7,0
				c-0.5-0.5-0.8-1.2-0.8-1.9S-64.3,213.8-63.8,213.3z"/>
			<path id="XMLID_4389_" class="st2" d="M-85.9,254.2c3.8-4.1,5.3-8.6,5.3-8.8c0.2-0.6,0-1.3-0.4-1.8l-4.7-4.7c0,0,0,0,0,0
				c0,0,0,0,0,0l-4.7-4.7c-0.5-0.5-1.1-0.6-1.8-0.4c-0.2,0.1-4.7,1.5-8.8,5.3c-3.9,3.6-8.1,10-6.4,20.1c0.1,0.7,0.7,1.3,1.5,1.5
				c1.6,0.3,3,0.4,4.4,0.4C-93.9,261-88.9,257.4-85.9,254.2z M-104.1,257.3c-0.7-6.3,1.1-11.5,5.4-15.6c2.5-2.3,5.2-3.7,6.6-4.2
				l2.6,2.6l-5,5c-0.7,0.7-0.7,1.8,0,2.5c0.3,0.3,0.8,0.5,1.2,0.5c0.5,0,0.9-0.2,1.2-0.5l5-5l2.6,2.6c-0.6,1.4-1.9,4.1-4.2,6.6
				C-92.6,256.2-97.8,258-104.1,257.3z"/>
			<path id="XMLID_4390_" class="st2" d="M-105.2,241.1c-5.4-12.3-3-27.2,7-37.2c10.5-10.5,26.2-12.6,38.8-6.3
				c1.2-0.8,2.4-1.5,3.5-2.1c-14.2-8.2-32.7-6.2-44.8,5.9c-11.7,11.7-13.9,29.4-6.7,43.4C-106.7,243.4-106,242.2-105.2,241.1z"/>
			<path id="XMLID_4391_" class="st2" d="M-42.3,209.1c-0.6,1.1-1.3,2.3-2.1,3.5c6.3,12.6,4.2,28.3-6.3,38.8
				c-10,10-24.9,12.4-37.2,7c-1.1,0.8-2.3,1.5-3.6,2.2c14,7.3,31.6,5,43.4-6.7C-36.1,241.8-34.1,223.3-42.3,209.1z"/>
		</g>
		<text id="XMLID_4340_" transform="matrix(1 0 0 1 -103.298 289.4944)" class="st3 st4 st5">YOUR LOGO</text>
	</g>
	<g id="XMLID_1941_" class="st0">
		<g id="XMLID_4342_" class="st1">
			<path id="XMLID_4367_" class="st2" d="M67,207.3c3.4,0,6.2-2.8,6.2-6.2s-2.8-6.2-6.2-6.2c-3.4,0-6.2,2.8-6.2,6.2
				S63.5,207.3,67,207.3z M67,198.5c1.5,0,2.7,1.2,2.7,2.7c0,1.5-1.2,2.7-2.7,2.7c-1.5,0-2.7-1.2-2.7-2.7
				C64.3,199.7,65.5,198.5,67,198.5z"/>
			<path id="XMLID_4368_" class="st2" d="M78.4,192.3c0.2,1.2,0.3,2.5,0.4,3.9c12.7,4.8,21.7,17.1,21.7,31.4
				c0,18.5-15.1,33.6-33.6,33.6c-18.5,0-33.6-15.1-33.6-33.6c0-14.4,9.1-26.6,21.7-31.4c0.1-1.3,0.3-2.6,0.4-3.9
				c-14.9,4.8-25.7,18.8-25.7,35.3c0,20.5,16.7,37.1,37.1,37.1c20.5,0,37.1-16.7,37.1-37.1C104.1,211.2,93.3,197.1,78.4,192.3z"/>
			<path id="XMLID_4371_" class="st2" d="M48.5,215c-0.6,0.3-1,0.9-1,1.6v22.1c0,1,0.8,1.8,1.8,1.8h4.4c0.6,0,1.1-0.3,1.5-0.8
				l3.9-5.8h15.8l3.9,5.8c0.3,0.5,0.9,0.8,1.5,0.8h4.4c1,0,1.8-0.8,1.8-1.8v-22.1c0-0.7-0.4-1.3-1-1.6l-7.9-3.9V210
				c0-14.9-1.5-25.6-4.6-31.7c-2.6-5.1-5.4-5.4-6-5.4c-0.6,0-3.4,0.3-6,5.4c-3.1,6.1-4.6,16.8-4.6,31.7v1.1L48.5,215z M52.8,236.9
				h-1.7v-19.2l5.3-2.7v16.5L52.8,236.9z M59.9,212.2V210c0-9,0.6-15.6,1.4-20.3h11.4C73.5,194.4,74,201,74,210v2.2v18.1h-5.3v-18.1
				c0-1-0.8-1.8-1.8-1.8c-1,0-1.8,0.8-1.8,1.8v18.1h-5.3V212.2z M82.9,217.7v19.2h-1.7l-3.6-5.4V215L82.9,217.7z M63.6,180.9
				c1.5-3.6,3-4.4,3.4-4.5c0.1,0.1,0.3,0.2,0.4,0.2c0.6,0.4,1.5,1.3,2.4,3.2c0.7,1.4,1.5,3.4,2.1,6.3H62
				C62.5,183.9,63.1,182.2,63.6,180.9z"/>
			<path id="XMLID_4378_" class="st2" d="M60.3,234.7c-0.5,0-1,0.2-1.3,0.6c-0.1,0.1-3.3,3.7-2.7,9c0.5,4.8,3.7,9.3,9.6,13.5
				c0.3,0.2,0.7,0.3,1,0.3c0.4,0,0.7-0.1,1-0.3c5.9-4.2,9.1-8.7,9.6-13.5c0.6-5.3-2.6-8.9-2.7-9c-0.3-0.4-0.8-0.6-1.3-0.6H60.3z
				 M74.1,244c-0.4,3.4-2.8,6.9-7.1,10.2c-4.3-3.3-6.7-6.7-7.1-10.2c-0.3-2.7,0.7-4.8,1.4-5.7h4v7.1c0,1,0.8,1.8,1.8,1.8
				c1,0,1.8-0.8,1.8-1.8v-7.1h4C73.3,239.2,74.4,241.3,74.1,244z"/>
		</g>
		<text id="XMLID_4309_" transform="matrix(1 0 0 1 38.1033 289.4944)" class="st3 st4 st5">YOUR LOGO</text>
	</g>
	<g id="XMLID_1940_" class="st0">
		<g id="XMLID_4313_" class="st1">
			<path id="XMLID_4333_" class="st2" d="M349.8,190.5c-20.5,0-37.1,16.7-37.1,37.1s16.7,37.1,37.1,37.1c20.5,0,37.1-16.7,37.1-37.1
				S370.2,190.5,349.8,190.5z M349.8,194c18.5,0,33.6,15.1,33.6,33.6c0,8.5-3.2,16.3-8.4,22.2c-2.7,0.4-5.1,2.1-6.4,4.4
				c-0.4,0-0.8-0.1-1.1-0.1c-1.5,0-2.9,0.4-4.2,1.1c-1.6-2-4.1-3.3-6.9-3.3v-9.3l0,0c0.5,0,0.9-0.2,1.2-0.5l3.9-3.9h5.9
				c1,0,1.8-0.8,1.8-1.8v-4.4c0-5.3-2.2-8-4.1-9.2c-0.9-0.6-1.8-0.9-2.5-1.1v-2.9c0-9.7-3.2-15.6-5.9-18.8c-3-3.6-6.1-4.9-6.2-4.9
				c-0.4-0.2-0.9-0.2-1.3,0c-0.1,0.1-3.2,1.3-6.2,4.9c-2.7,3.2-5.9,9.1-5.9,18.8v2.9c-0.7,0.2-1.6,0.5-2.5,1.1
				c-1.9,1.2-4.1,3.9-4.1,9.2v4.4c0,1,0.8,1.8,1.8,1.8h5.9l3.9,3.9c0.3,0.3,0.8,0.5,1.2,0.5v9.3c-2.8,0-5.2,1.3-6.9,3.3
				c-1.2-0.7-2.7-1.1-4.2-1.1c-0.4,0-0.8,0-1.1,0.1c-1.3-2.3-3.6-4-6.4-4.4c-5.2-5.9-8.4-13.7-8.4-22.2
				C316.2,209.1,331.2,194,349.8,194z M333.9,234.7v-2.7c0-4.2,1.7-5.9,3.1-6.6v9.3H333.9z M340.5,223.2v-4.4c0-6.8,1.7-12.3,5-16.4
				c1.7-2.1,3.4-3.2,4.3-3.7c2.2,1.3,9.3,6.3,9.3,20.1v4.4v12.5l-3.4,3.4h-11.8l-3.4-3.4V223.2z M362.6,225.5
				c0.2,0.1,0.5,0.2,0.7,0.4c1.6,1.1,2.4,3.2,2.4,6.2v2.7h-3.1V225.5z"/>
			<path id="XMLID_4345_" class="st2" d="M349.8,225c3.4,0,6.2-2.8,6.2-6.2s-2.8-6.2-6.2-6.2c-3.4,0-6.2,2.8-6.2,6.2
				S346.3,225,349.8,225z M349.8,216.1c1.5,0,2.7,1.2,2.7,2.7c0,1.5-1.2,2.7-2.7,2.7c-1.5,0-2.7-1.2-2.7-2.7
				C347.1,217.3,348.3,216.1,349.8,216.1z"/>
		</g>
		<text id="XMLID_4295_" transform="matrix(1 0 0 1 320.9051 289.4944)" class="st3 st4 st5">YOUR LOGO</text>
	</g>
	<g id="XMLID_1939_" class="st0">
		<g id="XMLID_4212_" class="st1">
			<circle id="XMLID_4294_" class="st2" cx="-74.4" cy="360.2" r="4.4"/>
			<path id="XMLID_4290_" class="st2" d="M-31.4,400l-35-70c-1.4-3-4.5-5.1-8-5.1c-3.6,0-6.6,2.1-8,5.1l-35,70
				c-0.8,1.3-1.2,2.8-1.2,4.4c0,4.9,4,8.8,8.8,8.8h8.8c0-4.9,4-8.8,8.8-8.8c1.6,0,2.2,0,2.2,0c0-4.9,4-8.8,8.8-8.8v-11h13.3v11
				c4.9,0,8.8,4,8.8,8.8c0,0,1.4,0,2.2,0c4.9,0,8.8,4,8.8,8.8h8.8c4.9,0,8.8-4,8.8-8.8C-30.3,402.8-30.7,401.3-31.4,400z
				 M-98.7,387.6h-1.3v1.3c0,0.5-0.4,0.9-0.9,0.9c-0.5,0-0.9-0.4-0.9-0.9v-1.3h-1.3c-0.5,0-0.9-0.4-0.9-0.9c0-0.5,0.4-0.9,0.9-0.9
				h1.3v-1.3c0-0.5,0.4-0.9,0.9-0.9c0.5,0,0.9,0.4,0.9,0.9v1.3h1.3c0.5,0,0.9,0.4,0.9,0.9C-97.9,387.2-98.3,387.6-98.7,387.6z
				 M-89.9,396.4h-1.3v1.3c0,0.5-0.4,0.9-0.9,0.9c-0.5,0-0.9-0.4-0.9-0.9v-1.3h-1.3c-0.5,0-0.9-0.4-0.9-0.9c0-0.5,0.4-0.9,0.9-0.9
				h1.3v-1.3c0-0.5,0.4-0.9,0.9-0.9c0.5,0,0.9,0.4,0.9,0.9v1.3h1.3c0.5,0,0.9,0.4,0.9,0.9C-89,396-89.4,396.4-89.9,396.4z
				 M-63.4,377.9l-4.4,4.4h-13.3l-4.4-4.4h-6.6v-4.4c0-8.8,6.6-8.8,6.6-8.8v-4.4c0-17.7,11-22.1,11-22.1s11,4.4,11,22.1v4.4
				c0,0,6.6,0,6.6,8.8v4.4H-63.4z M-54.6,396.4h-1.3v1.3c0,0.5-0.4,0.9-0.9,0.9c-0.5,0-0.9-0.4-0.9-0.9v-1.3H-59
				c-0.5,0-0.9-0.4-0.9-0.9c0-0.5,0.4-0.9,0.9-0.9h1.3v-1.3c0-0.5,0.4-0.9,0.9-0.9c0.5,0,0.9,0.4,0.9,0.9v1.3h1.3
				c0.5,0,0.9,0.4,0.9,0.9C-53.7,396-54.1,396.4-54.6,396.4z M-45.7,387.6H-47v1.3c0,0.5-0.4,0.9-0.9,0.9s-0.9-0.4-0.9-0.9v-1.3
				h-1.3c-0.5,0-0.9-0.4-0.9-0.9c0-0.5,0.4-0.9,0.9-0.9h1.3v-1.3c0-0.5,0.4-0.9,0.9-0.9s0.9,0.4,0.9,0.9v1.3h1.3
				c0.5,0,0.9,0.4,0.9,0.9C-44.8,387.2-45.2,387.6-45.7,387.6z"/>
		</g>
		<text id="XMLID_4210_" transform="matrix(1 0 0 1 -103.298 430.8958)" class="st3 st4 st5">YOUR LOGO</text>
	</g>
	<g id="XMLID_1938_" class="st0">
		<g id="XMLID_4214_" class="st1">
			<path id="XMLID_4279_" class="st2" d="M82.3,368.7c-0.9-0.6-1.8-0.9-2.5-1.1v-7.3c0-4.6-0.7-8.4-1.8-11.5c0-0.1-0.1-0.3-0.1-0.4
				c-1.1-3.1-2.6-5.4-4-7c-3-3.6-6.1-4.9-6.2-4.9c-0.4-0.2-0.9-0.2-1.3,0c-0.1,0.1-3.2,1.3-6.2,4.9c-1.4,1.6-2.8,3.9-4,7
				c-0.1,0.1-0.1,0.2-0.1,0.3c-1.1,3-1.8,6.8-1.8,11.5v7.3c-0.7,0.2-1.6,0.5-2.5,1.1c-1.9,1.2-4.1,3.9-4.1,9.2v4.4
				c0,1,0.8,1.8,1.8,1.8h5.9l3.9,3.9c0.3,0.3,0.8,0.5,1.2,0.5h13.3c0.5,0,0.9-0.2,1.2-0.5l3.9-3.9h5.9c1,0,1.8-0.8,1.8-1.8v-4.4
				C86.4,372.5,84.2,369.9,82.3,368.7z M54.1,380.5H51v-2.7c0-4.2,1.7-5.9,3.1-6.6V380.5z M62.6,343.8c1.7-2.1,3.4-3.2,4.3-3.7
				c0.9,0.5,2.6,1.7,4.3,3.7c0.9,1.1,1.6,2.3,2.3,3.6H60.4C61,346.1,61.8,344.9,62.6,343.8z M76.2,369v12.5l-3.4,3.4H61l-3.4-3.4
				V369v-8.8c0-3.4,0.4-6.5,1.3-9.3h16c0.8,2.8,1.3,5.9,1.3,9.3V369z M82.9,380.5h-3.1v-9.2c0.2,0.1,0.5,0.2,0.7,0.4
				c1.6,1.1,2.4,3.2,2.4,6.2V380.5z"/>
			<path id="XMLID_4293_" class="st2" d="M60.3,389.4c-1,0-1.8,0.8-1.8,1.8v13.3c0,1,0.8,1.8,1.8,1.8c1,0,1.8-0.8,1.8-1.8v-13.3
				C62.1,390.2,61.3,389.4,60.3,389.4z"/>
			<path id="XMLID_4297_" class="st2" d="M73.6,389.4c-1,0-1.8,0.8-1.8,1.8v13.3c0,1,0.8,1.8,1.8,1.8c1,0,1.8-0.8,1.8-1.8v-13.3
				C75.3,390.2,74.5,389.4,73.6,389.4z"/>
			<path id="XMLID_4298_" class="st2" d="M67,389.4c-1,0-1.8,0.8-1.8,1.8v13.3c0,1,0.8,1.8,1.8,1.8c1,0,1.8-0.8,1.8-1.8v-13.3
				C68.8,390.2,68,389.4,67,389.4z"/>
			<path id="XMLID_4299_" class="st2" d="M42.6,361.1H44v1.3c0,0.5,0.4,0.9,0.9,0.9c0.5,0,0.9-0.4,0.9-0.9v-1.3h1.3
				c0.5,0,0.9-0.4,0.9-0.9c0-0.5-0.4-0.9-0.9-0.9h-1.3V358c0-0.5-0.4-0.9-0.9-0.9c-0.5,0-0.9,0.4-0.9,0.9v1.3h-1.3
				c-0.5,0-0.9,0.4-0.9,0.9C41.8,360.7,42.2,361.1,42.6,361.1z"/>
			<path id="XMLID_4301_" class="st2" d="M86.8,361.1h1.3v1.3c0,0.5,0.4,0.9,0.9,0.9c0.5,0,0.9-0.4,0.9-0.9v-1.3h1.3
				c0.5,0,0.9-0.4,0.9-0.9c0-0.5-0.4-0.9-0.9-0.9h-1.3V358c0-0.5-0.4-0.9-0.9-0.9c-0.5,0-0.9,0.4-0.9,0.9v1.3h-1.3
				c-0.5,0-0.9,0.4-0.9,0.9C85.9,360.7,86.3,361.1,86.8,361.1z"/>
			<path id="XMLID_4303_" class="st2" d="M66.9,354c-2,0-3.8,1-5,2.5c-0.8,1-1.2,2.3-1.2,3.7c0,1,0.8,1.8,1.8,1.8
				c0.4,0,0.7-0.1,1-0.3c0.5-0.3,0.8-0.9,0.8-1.5c0-0.9,0.5-1.7,1.2-2.2c0.4-0.3,0.9-0.5,1.5-0.5c1.5,0,2.7,1.2,2.7,2.7
				c0,1,0.8,1.8,1.8,1.8c0.5,0,1-0.2,1.4-0.6c0.3-0.3,0.4-0.7,0.4-1.1C73.1,356.8,70.4,354,66.9,354z"/>
			<path id="XMLID_4304_" class="st2" d="M29.8,404.4c0,1,0.8,1.8,1.8,1.8c1,0,1.8-0.8,1.8-1.8c0-10.9,5.2-20.6,13.3-26.7
				c0-1.9,0.3-3.5,0.8-4.8C36.9,379.4,29.8,391.1,29.8,404.4z"/>
			<path id="XMLID_4305_" class="st2" d="M86.5,372.8c0.5,1.3,0.8,2.9,0.8,4.8c8.1,6.1,13.3,15.8,13.3,26.7c0,1,0.8,1.8,1.8,1.8
				c1,0,1.8-0.8,1.8-1.8C104.1,391.1,97,379.4,86.5,372.8z"/>
		</g>
		<text id="XMLID_4217_" transform="matrix(1 0 0 1 38.0897 430.8958)" class="st3 st4 st5">YOUR LOGO</text>
	</g>
	<g id="XMLID_4270_" class="st0">
		<g id="XMLID_4213_" class="st1">
			<path id="XMLID_4272_" class="st2" d="M208.3,353.1c3.4,0,6.2-2.8,6.2-6.2c0-3.4-2.8-6.2-6.2-6.2s-6.2,2.8-6.2,6.2
				C202.2,350.3,204.9,353.1,208.3,353.1z M208.3,344.3c1.5,0,2.7,1.2,2.7,2.7c0,1.5-1.2,2.7-2.7,2.7c-1.5,0-2.7-1.2-2.7-2.7
				C205.7,345.5,206.9,344.3,208.3,344.3z"/>
			<path id="XMLID_4275_" class="st2" d="M243.6,357.3c-3.9-11.6-13.3-20.6-25.1-24c-1-2.2-2.2-3.9-3.2-5.2c-3-3.6-6.1-4.9-6.2-4.9
				c-0.4-0.2-0.9-0.2-1.3,0c-0.1,0.1-3.2,1.3-6.2,4.9c-1.1,1.3-2.2,3-3.2,5.2c-11.8,3.3-21.2,12.4-25.1,24
				c-9.1,2-19.7,5.6-19.7,11.7c0,4.6,5.7,8.3,16.9,11.1c0.9,0.2,1.8,0.4,2.8,0.6c2.4,7.1,6.9,13.4,12.9,17.9
				c6.5,4.9,14.2,7.5,22.3,7.5c8.1,0,15.9-2.6,22.3-7.5c6-4.5,10.5-10.8,12.9-17.9c0.9-0.2,1.9-0.4,2.8-0.6
				c11.2-2.8,16.9-6.5,16.9-11.1C263.2,362.9,252.7,359.3,243.6,357.3z M241.9,367.6c-1,0.2-2.1,0.5-3.2,0.7
				c-3.3,0.6-7,1.2-10.9,1.6V369c0-5.3-2.2-8-4.1-9.2c-0.9-0.6-1.8-0.9-2.5-1.1v-11.8c0-3.7-0.5-6.8-1.2-9.4
				C232.4,342.1,241.3,353.8,241.9,367.6z M224.3,369v2.7h-3.1v-9.3C222.6,363.1,224.3,364.8,224.3,369z M199.1,360.2v-13.3
				c0-6.8,1.7-12.3,5-16.4c1.7-2.1,3.4-3.2,4.3-3.7c0.9,0.5,2.6,1.7,4.3,3.7c3.3,4.1,5,9.6,5,16.4v13.3v12.5l-3.4,3.4h-11.8
				l-3.4-3.4V360.2z M196.7,337.5c-0.7,2.6-1.2,5.8-1.2,9.4v11.8c-0.7,0.2-1.6,0.5-2.5,1.1c-1.9,1.2-4.1,3.9-4.1,9.2v0.9
				c-3.9-0.4-7.5-0.9-10.9-1.6c-1.1-0.2-2.2-0.4-3.2-0.7C175.4,353.8,184.3,342.1,196.7,337.5z M195.5,362.4v9.3h-3.1V369
				C192.4,364.8,194.1,363.1,195.5,362.4z M171.2,376.7c-10.5-2.6-14.2-5.8-14.2-7.7c0-2.2,4.7-5.4,15.1-7.9
				c-0.5,2.5-0.8,5.2-0.8,7.9c0,0.9,0.6,1.6,1.5,1.7c1.5,0.4,3,0.7,4.6,1c3.5,0.7,7.4,1.2,11.5,1.7c0,1,0.8,1.8,1.8,1.8h5.9l3.4,3.4
				v1.8C189.1,379.9,179.1,378.7,171.2,376.7z M186.8,394.8c-4.2-3.5-7.6-8-9.7-13.2c6.8,1.2,14.5,2,22.8,2.3v4.1
				c0,4.6-3.7,8.3-8.3,8.3C189.9,396.3,188.2,395.7,186.8,394.8z M208.3,402.6c-4.9,0-9.7-1.1-14-3.1c5.2-1.2,9.2-5.9,9.2-11.5v-8.3
				h9.7v8.3c0,5.6,3.9,10.3,9.2,11.5C218,401.5,213.3,402.6,208.3,402.6z M229.9,394.8c-1.4,1-3.1,1.5-4.8,1.5
				c-4.6,0-8.3-3.7-8.3-8.3v-4.1c8.2-0.3,16-1.1,22.8-2.3C237.4,386.8,234.1,391.3,229.9,394.8z M245.5,376.7
				c-7.9,2-17.9,3.2-28.7,3.7v-1.8l3.4-3.4h5.9c1,0,1.8-0.8,1.8-1.8c4.1-0.4,8-1,11.5-1.7c1.6-0.3,3.2-0.7,4.6-1
				c0.8-0.1,1.5-0.9,1.5-1.7c0-2.7-0.3-5.3-0.8-7.9c10.4,2.5,15.1,5.7,15.1,7.9C259.7,370.9,256,374.1,245.5,376.7z"/>
			<path id="XMLID_4314_" class="st2" d="M223.8,352.2h1.3v1.3c0,0.5,0.4,0.9,0.9,0.9c0.5,0,0.9-0.4,0.9-0.9v-1.3h1.3
				c0.5,0,0.9-0.4,0.9-0.9c0-0.5-0.4-0.9-0.9-0.9h-1.3v-1.3c0-0.5-0.4-0.9-0.9-0.9c-0.5,0-0.9,0.4-0.9,0.9v1.3h-1.3
				c-0.5,0-0.9,0.4-0.9,0.9C222.9,351.8,223.3,352.2,223.8,352.2z"/>
			<path id="XMLID_4315_" class="st2" d="M188.5,352.2h1.3v1.3c0,0.5,0.4,0.9,0.9,0.9c0.5,0,0.9-0.4,0.9-0.9v-1.3h1.3
				c0.5,0,0.9-0.4,0.9-0.9c0-0.5-0.4-0.9-0.9-0.9h-1.3v-1.3c0-0.5-0.4-0.9-0.9-0.9c-0.5,0-0.9,0.4-0.9,0.9v1.3h-1.3
				c-0.5,0-0.9,0.4-0.9,0.9C187.6,351.8,188,352.2,188.5,352.2z"/>
			<path id="XMLID_4316_" class="st2" d="M179.6,334.6h1.3v1.3c0,0.5,0.4,0.9,0.9,0.9c0.5,0,0.9-0.4,0.9-0.9v-1.3h1.3
				c0.5,0,0.9-0.4,0.9-0.9c0-0.5-0.4-0.9-0.9-0.9h-1.3v-1.3c0-0.5-0.4-0.9-0.9-0.9c-0.5,0-0.9,0.4-0.9,0.9v1.3h-1.3
				c-0.5,0-0.9,0.4-0.9,0.9C178.7,334.2,179.1,334.6,179.6,334.6z"/>
			<path id="XMLID_4317_" class="st2" d="M232.6,334.6h1.3v1.3c0,0.5,0.4,0.9,0.9,0.9c0.5,0,0.9-0.4,0.9-0.9v-1.3h1.3
				c0.5,0,0.9-0.4,0.9-0.9c0-0.5-0.4-0.9-0.9-0.9h-1.3v-1.3c0-0.5-0.4-0.9-0.9-0.9c-0.5,0-0.9,0.4-0.9,0.9v1.3h-1.3
				c-0.5,0-0.9,0.4-0.9,0.9C231.8,334.2,232.2,334.6,232.6,334.6z"/>
			<path id="XMLID_4318_" class="st2" d="M223.8,389.8h1.3v1.3c0,0.5,0.4,0.9,0.9,0.9c0.5,0,0.9-0.4,0.9-0.9v-1.3h1.3
				c0.5,0,0.9-0.4,0.9-0.9c0-0.5-0.4-0.9-0.9-0.9h-1.3v-1.3c0-0.5-0.4-0.9-0.9-0.9c-0.5,0-0.9,0.4-0.9,0.9v1.3h-1.3
				c-0.5,0-0.9,0.4-0.9,0.9C222.9,389.4,223.3,389.8,223.8,389.8z"/>
			<path id="XMLID_4319_" class="st2" d="M192.9,388h-1.3v-1.3c0-0.5-0.4-0.9-0.9-0.9c-0.5,0-0.9,0.4-0.9,0.9v1.3h-1.3
				c-0.5,0-0.9,0.4-0.9,0.9c0,0.5,0.4,0.9,0.9,0.9h1.3v1.3c0,0.5,0.4,0.9,0.9,0.9c0.5,0,0.9-0.4,0.9-0.9v-1.3h1.3
				c0.5,0,0.9-0.4,0.9-0.9C193.8,388.4,193.4,388,192.9,388z"/>
		</g>
		<text id="XMLID_4233_" transform="matrix(1 0 0 1 179.4901 430.8958)" class="st3 st4 st5">YOUR LOGO</text>
	</g>
	<g id="XMLID_1786_" class="st0">
		<g id="XMLID_4235_" class="st1">
			<path id="XMLID_4251_" class="st2" d="M349.7,353.1c3.4,0,6.2-2.8,6.2-6.2c0-3.4-2.8-6.2-6.2-6.2c-3.4,0-6.2,2.8-6.2,6.2
				C343.6,350.3,346.3,353.1,349.7,353.1z M349.7,344.3c1.5,0,2.7,1.2,2.7,2.7c0,1.5-1.2,2.7-2.7,2.7c-1.5,0-2.7-1.2-2.7-2.7
				C347.1,345.5,348.3,344.3,349.7,344.3z"/>
			<path id="XMLID_4254_" class="st2" d="M362.5,344.1c-0.6-8-3.4-13-5.8-15.9c-3-3.6-6.1-4.9-6.2-4.9c-0.4-0.2-0.9-0.2-1.3,0
				c-0.1,0.1-3.2,1.3-6.2,4.9c-2.4,2.9-5.3,8-5.8,15.9c-8.3,4.6-13.4,13.3-13.4,22.8v37.6c0,3.4,2.8,6.2,6.2,6.2
				c3.4,0,6.2-2.8,6.2-6.2v-15.5c0-0.2,0.2-0.4,0.4-0.4s0.4,0.2,0.4,0.4v11c0,3.4,2.8,6.2,6.2,6.2c3.4,0,6.2-2.8,6.2-6.2v-11
				c0-0.2,0.2-0.4,0.4-0.4c0.2,0,0.4,0.2,0.4,0.4v11c0,3.4,2.8,6.2,6.2,6.2c3.4,0,6.2-2.8,6.2-6.2v-11c0-0.2,0.2-0.4,0.4-0.4
				c0.2,0,0.4,0.2,0.4,0.4v15.5c0,3.4,2.8,6.2,6.2,6.2c3.4,0,6.2-2.8,6.2-6.2v-37.6C375.8,357.3,370.7,348.7,362.5,344.1z
				 M362.6,362.4c0.2,0.1,0.5,0.2,0.7,0.4c1.6,1.1,2.4,3.2,2.4,6.2v2.7h-3.1V362.4z M340.5,346.9c0-6.8,1.7-12.3,5-16.4
				c1.7-2.1,3.4-3.2,4.3-3.7c0.9,0.5,2.6,1.7,4.3,3.7c3.3,4.1,5,9.6,5,16.4v13.3v12.5l-3.4,3.4h-11.8l-3.4-3.4v-12.5V346.9z
				 M333.8,371.7V369c0-4.2,1.7-5.9,3.1-6.6v9.3H333.8z M372.3,404.4c0,1.5-1.2,2.7-2.7,2.7s-2.7-1.2-2.7-2.7v-15.5c0-2.2-1.8-4-4-4
				c-2.2,0-4,1.8-4,4v11c0,1.5-1.2,2.7-2.7,2.7c-1.5,0-2.7-1.2-2.7-2.7v-11c0-2.2-1.8-4-4-4c-2.2,0-4,1.8-4,4v11
				c0,1.5-1.2,2.7-2.7,2.7c-1.5,0-2.7-1.2-2.7-2.7v-11c0-2.2-1.8-4-4-4c-2.2,0-4,1.8-4,4v15.5c0,1.5-1.2,2.7-2.7,2.7
				s-2.7-1.2-2.7-2.7v-37.6c0-7.5,3.7-14.4,9.7-18.5v10.4c-0.7,0.2-1.6,0.5-2.5,1.1c-1.9,1.2-4.1,3.9-4.1,9.2v4.4
				c0,1,0.8,1.8,1.8,1.8h5.9l3.9,3.9c0.3,0.3,0.8,0.5,1.2,0.5h13.3c0.5,0,0.9-0.2,1.2-0.5l3.9-3.9h5.9c1,0,1.8-0.8,1.8-1.8V369
				c0-5.3-2.2-8-4.1-9.2c-0.9-0.6-1.8-0.9-2.5-1.1v-10.4c6.1,4.2,9.7,11,9.7,18.5V404.4z"/>
		</g>
		<text id="XMLID_2003_" transform="matrix(1 0 0 1 320.8914 430.8958)" class="st3 st4 st5">YOUR LOGO</text>
	</g>
	<g id="XMLID_4201_" class="st0">
		<g id="XMLID_1943_" class="st1">
			<path id="XMLID_2976_" class="st2" d="M-85,507.3l-8.1,6.1c-0.4,0.3-0.7,0.9-0.7,1.4v17.7c0,1,0.8,1.8,1.8,1.8h6.6
				c0.7,0,1.3-0.4,1.6-1l1.7-3.4h15.5l1.7,3.4c0.3,0.6,0.9,1,1.6,1h6.6c1,0,1.8-0.8,1.8-1.8v-17.7c0-0.6-0.3-1.1-0.7-1.4l-8.1-6.1
				V484c0,0,0,0,0,0c0,0,0,0,0,0c0-0.4-0.1-0.7-0.3-1l-6.4-12.8c-0.1-0.1-0.1-0.3-0.2-0.4l-2.1-4.2c-0.3-0.6-0.9-1-1.6-1
				c-0.7,0-1.3,0.4-1.6,1l-8.7,17.4c-0.2,0.3-0.3,0.6-0.3,1c0,0,0,0,0,0c0,0,0,0,0,0V507.3z M-75.5,472.4h2.2l4.9,9.7h-11.9
				L-75.5,472.4z M-81.5,516.6h14.1v0.9h-14.1V516.6z M-67.4,485.7v27.4h-5.3v-27.4H-67.4z M-76.2,485.7v27.4h-5.3v-4.9c0,0,0,0,0,0
				v-22.5H-76.2z M-86.6,530.8h-3.8v-15l5.3-4v15.9L-86.6,530.8z M-81.5,526.3V521h14.1v5.3H-81.5z M-63.8,511.8l5.3,4v15h-3.8
				l-1.5-3.1V511.8z"/>
			<path id="XMLID_2983_" class="st2" d="M-81.1,535.2c-1,0-1.8,0.8-1.8,1.8v15.9H-108v-58.3h20.3c1,0,1.8-0.8,1.8-1.8
				c0-1-0.8-1.8-1.8-1.8h-22.1c-1,0-1.8,0.8-1.8,1.8v61.9c0,1,0.8,1.8,1.8,1.8h28.7c1,0,1.8-0.8,1.8-1.8v-17.7
				C-79.3,536-80.1,535.2-81.1,535.2z"/>
			<path id="XMLID_2984_" class="st2" d="M-39.1,491h-22.1c-1,0-1.8,0.8-1.8,1.8c0,1,0.8,1.8,1.8,1.8h20.3v58.3H-66v-15.9
				c0-1-0.8-1.8-1.8-1.8c-1,0-1.8,0.8-1.8,1.8v17.7c0,1,0.8,1.8,1.8,1.8h28.7c1,0,1.8-0.8,1.8-1.8v-61.9
				C-37.3,491.8-38.1,491-39.1,491z"/>
			<path id="XMLID_2985_" class="st2" d="M-52.3,502.9c-0.5,0-0.9,0.4-0.9,0.9v1.3h-1.3c-0.5,0-0.9,0.4-0.9,0.9
				c0,0.5,0.4,0.9,0.9,0.9h1.3v1.3c0,0.5,0.4,0.9,0.9,0.9c0.5,0,0.9-0.4,0.9-0.9v-1.3h1.3c0.5,0,0.9-0.4,0.9-0.9
				c0-0.5-0.4-0.9-0.9-0.9h-1.3v-1.3C-51.5,503.3-51.9,502.9-52.3,502.9z"/>
			<path id="XMLID_2988_" class="st2" d="M-47.9,533.9c-0.5,0-0.9,0.4-0.9,0.9v1.3h-1.3c-0.5,0-0.9,0.4-0.9,0.9
				c0,0.5,0.4,0.9,0.9,0.9h1.3v1.3c0,0.5,0.4,0.9,0.9,0.9s0.9-0.4,0.9-0.9v-1.3h1.3c0.5,0,0.9-0.4,0.9-0.9c0-0.5-0.4-0.9-0.9-0.9
				H-47v-1.3C-47,534.2-47.4,533.9-47.9,533.9z"/>
			<path id="XMLID_2990_" class="st2" d="M-56.8,548.9c0.5,0,0.9-0.4,0.9-0.9v-1.3h1.3c0.5,0,0.9-0.4,0.9-0.9c0-0.5-0.4-0.9-0.9-0.9
				h-1.3v-1.3c0-0.5-0.4-0.9-0.9-0.9c-0.5,0-0.9,0.4-0.9,0.9v1.3H-59c-0.5,0-0.9,0.4-0.9,0.9c0,0.5,0.4,0.9,0.9,0.9h1.3v1.3
				C-57.7,548.5-57.3,548.9-56.8,548.9z"/>
			<path id="XMLID_2991_" class="st2" d="M-96.5,509.1c0.5,0,0.9-0.4,0.9-0.9v-1.3h1.3c0.5,0,0.9-0.4,0.9-0.9c0-0.5-0.4-0.9-0.9-0.9
				h-1.3v-1.3c0-0.5-0.4-0.9-0.9-0.9c-0.5,0-0.9,0.4-0.9,0.9v1.3h-1.3c-0.5,0-0.9,0.4-0.9,0.9c0,0.5,0.4,0.9,0.9,0.9h1.3v1.3
				C-97.4,508.7-97,509.1-96.5,509.1z"/>
			<path id="XMLID_2992_" class="st2" d="M-101,540c0.5,0,0.9-0.4,0.9-0.9v-1.3h1.3c0.5,0,0.9-0.4,0.9-0.9c0-0.5-0.4-0.9-0.9-0.9
				h-1.3v-1.3c0-0.5-0.4-0.9-0.9-0.9c-0.5,0-0.9,0.4-0.9,0.9v1.3h-1.3c-0.5,0-0.9,0.4-0.9,0.9c0,0.5,0.4,0.9,0.9,0.9h1.3v1.3
				C-101.8,539.6-101.4,540-101,540z"/>
			<path id="XMLID_4202_" class="st2" d="M-92.1,548.9c0.5,0,0.9-0.4,0.9-0.9v-1.3h1.3c0.5,0,0.9-0.4,0.9-0.9c0-0.5-0.4-0.9-0.9-0.9
				h-1.3v-1.3c0-0.5-0.4-0.9-0.9-0.9c-0.5,0-0.9,0.4-0.9,0.9v1.3h-1.3c-0.5,0-0.9,0.4-0.9,0.9c0,0.5,0.4,0.9,0.9,0.9h1.3v1.3
				C-93,548.5-92.6,548.9-92.1,548.9z"/>
		</g>
		<text id="XMLID_4169_" transform="matrix(1 0 0 1 -103.298 572.2972)" class="st3 st4 st5">YOUR LOGO</text>
	</g>
	<g id="XMLID_1691_" class="st0">
		<g id="XMLID_1751_" class="st1">
			<path id="XMLID_2959_" class="st2" d="M67,482.3c-3.4,0-6.2,2.8-6.2,6.2c0,3.4,2.8,6.2,6.2,6.2c3.4,0,6.2-2.8,6.2-6.2
				C73.1,485.1,70.4,482.3,67,482.3z M67,491.1c-1.5,0-2.7-1.2-2.7-2.7c0-1.5,1.2-2.7,2.7-2.7c1.5,0,2.7,1.2,2.7,2.7
				C69.6,489.9,68.4,491.1,67,491.1z"/>
			<path id="XMLID_2964_" class="st2" d="M77.9,477c-1.2-3.2-2.7-5.6-4.1-7.3c-3-3.6-6.1-4.9-6.2-4.9c-0.4-0.2-0.9-0.2-1.3,0
				c-0.1,0.1-3.2,1.3-6.2,4.9c-1.4,1.7-2.9,4.1-4.1,7.3c-14.2,4.6-24.4,17.9-24.4,33.6c0,10.6,4.6,20,12,26.5c0,0,0,0,0,0
				c1.8,1.6,4.1,2.5,6.7,2.5c5.6,0,10.1-4.5,10.1-10.1v-8.3h0h13.3l0,0v8.3c0,5.6,4.5,10.1,10.1,10.1c2.5,0,4.9-0.9,6.7-2.5l0,0
				c7.3-6.5,12-16,12-26.5C102.3,494.9,92.1,481.6,77.9,477z M42.7,511.5h-1.3v1.3c0,0.5-0.4,0.9-0.9,0.9c-0.5,0-0.9-0.4-0.9-0.9
				v-1.3h-1.3c-0.5,0-0.9-0.4-0.9-0.9c0-0.5,0.4-0.9,0.9-0.9h1.3v-1.3c0-0.5,0.4-0.9,0.9-0.9c0.5,0,0.9,0.4,0.9,0.9v1.3h1.3
				c0.5,0,0.9,0.4,0.9,0.9C43.5,511.1,43.1,511.5,42.7,511.5z M46.2,497.3c0-0.5,0.4-0.9,0.9-0.9h1.3v-1.3c0-0.5,0.4-0.9,0.9-0.9
				c0.5,0,0.9,0.4,0.9,0.9v1.3h1.3c0.5,0,0.9,0.4,0.9,0.9s-0.4,0.9-0.9,0.9h-1.3v1.3c0,0.5-0.4,0.9-0.9,0.9c-0.5,0-0.9-0.4-0.9-0.9
				v-1.3h-1.3C46.6,498.2,46.2,497.8,46.2,497.3z M61.1,517.7l-3.9-3.9c-0.3-0.3-0.8-0.5-1.2-0.5h-4.9v-2.7c0-6.7,4.3-7.1,4.9-7.1
				c0.5,0,0.9-0.2,1.2-0.5c0.3-0.3,0.5-0.8,0.5-1.3v-13.3c0-6.8,1.7-12.3,5-16.4c1.7-2.1,3.4-3.2,4.3-3.7c0.9,0.5,2.6,1.7,4.3,3.7
				c3.3,4.1,5,9.6,5,16.4v13.3c0,1,0.8,1.8,1.8,1.8c0.2,0,4.9,0.1,4.9,7.1v2.7H78c-0.5,0-0.9,0.2-1.2,0.5l-3.9,3.9H61.1z
				 M86.8,498.2h-1.3v1.3c0,0.5-0.4,0.9-0.9,0.9c-0.5,0-0.9-0.4-0.9-0.9v-1.3h-1.3c-0.5,0-0.9-0.4-0.9-0.9s0.4-0.9,0.9-0.9h1.3v-1.3
				c0-0.5,0.4-0.9,0.9-0.9c0.5,0,0.9,0.4,0.9,0.9v1.3h1.3c0.5,0,0.9,0.4,0.9,0.9S87.3,498.2,86.8,498.2z"/>
		</g>
		<text id="XMLID_2004_" transform="matrix(1 0 0 1 38.1033 572.3704)" class="st3 st4 st5">YOUR LOGO</text>
	</g>
	<g id="XMLID_2956_" class="st0">
		<g id="XMLID_1750_" class="st1">
			<path id="XMLID_4204_" class="st2" d="M212.7,516.7c1.6,0,3.2-0.6,4.4-1.8c1.2-1.2,1.8-2.7,1.8-4.4c0-1.7-0.6-3.2-1.8-4.4
				c-2.4-2.4-6.3-2.4-8.7,0c-1.2,1.2-1.8,2.7-1.8,4.4c0,1.7,0.6,3.2,1.8,4.4C209.5,516.1,211.1,516.7,212.7,516.7z M210.8,508.6
				c0.5-0.5,1.2-0.8,1.9-0.8s1.4,0.3,1.9,0.8c0.5,0.5,0.8,1.2,0.8,1.9s-0.3,1.4-0.8,1.9c-1,1-2.7,1-3.7,0c-0.5-0.5-0.8-1.2-0.8-1.9
				S210.3,509.1,210.8,508.6z"/>
			<path id="XMLID_4238_" class="st2" d="M215.9,533.4l-2.8-8.3l0.8-0.8c10.6-10.6,17-19.2,19.2-25.7c1.8-5.4,0-7.7-0.4-8.1
				c-0.4-0.4-2.6-2.2-8.1-0.4c-6.5,2.2-15.1,8.6-25.7,19.2l-0.8,0.8l-8.3-2.8c-0.6-0.2-1.3,0-1.8,0.4l-15.6,15.6
				c-0.7,0.7-0.7,1.8,0,2.5l3.1,3.1c0.3,0.3,0.8,0.5,1.2,0.5c0.1,0,0.2,0,0.3,0l6.9-1.4l5.6,5.6c0,0,0,0,0,0c0,0,0,0,0,0l5.6,5.6
				l-1.4,6.9c-0.1,0.6,0.1,1.2,0.5,1.6l3.1,3.1c0.3,0.3,0.8,0.5,1.2,0.5c0.5,0,0.9-0.2,1.2-0.5l15.6-15.6
				C216,534.7,216.1,534,215.9,533.4z M224.6,493.9c3.6-1.5,5.2-1,5.6-0.8c0,0.1,0.1,0.4,0.1,0.4c0.1,0.7,0.2,1.9-0.5,4
				c-0.5,1.5-1.4,3.5-2.9,5.9l-7-7C221.5,495.4,223.1,494.5,224.6,493.9z M216.8,498.4l8,8c-2.8,4-7.1,9-13.4,15.4l-1.6,1.6l0,0
				l-12.8,12.8l-3.7-3.7l12.8-12.8c0.7-0.7,0.7-1.8,0-2.5c-0.7-0.7-1.8-0.7-2.5,0l-12.8,12.8l-3.7-3.7l12.8-12.8c0,0,0,0,0,0
				l1.6-1.6C205.8,507.4,211.4,502.2,216.8,498.4z M176.1,524.6l13.6-13.6l5.6,1.9l-11.7,11.7l-6.4,1.3L176.1,524.6z M198.6,547.1
				l-1.2-1.2l1.3-6.4l1.1-1.1l10.5-10.5l1.9,5.6L198.6,547.1z"/>
			<path id="XMLID_4245_" class="st2" d="M193.6,539l-4.7-4.7c0,0,0,0,0,0c0,0,0,0,0,0l-4.7-4.7c-0.5-0.5-1.1-0.6-1.8-0.4
				c-0.2,0.1-4.7,1.5-8.8,5.3c-3.9,3.6-8.1,10-6.4,20.1c0.1,0.7,0.7,1.3,1.5,1.5c1.6,0.3,3,0.4,4.4,0.4c7.6,0,12.7-3.6,15.7-6.8
				c3.8-4.1,5.3-8.6,5.3-8.8C194.3,540.1,194.1,539.4,193.6,539z M186.1,547.3c-4.1,4.3-9.3,6.2-15.6,5.4
				c-0.7-6.3,1.1-11.5,5.4-15.6c2.5-2.3,5.2-3.7,6.6-4.2l2.6,2.6l-5,5c-0.7,0.7-0.7,1.8,0,2.5c0.3,0.3,0.8,0.5,1.2,0.5
				c0.5,0,0.9-0.2,1.2-0.5l5-5l2.6,2.6C189.7,542.1,188.4,544.8,186.1,547.3z"/>
			<path id="XMLID_4246_" class="st2" d="M248.1,473.3h-79.5c-1,0-1.8,0.8-1.8,1.8v44.2c0,1,0.8,1.8,1.8,1.8c1,0,1.8-0.8,1.8-1.8
				v-42.4h76v76h-42.4c-1,0-1.8,0.8-1.8,1.8c0,1,0.8,1.8,1.8,1.8h44.2c1,0,1.8-0.8,1.8-1.8v-79.5
				C249.9,474.1,249.1,473.3,248.1,473.3z"/>
			<path id="XMLID_4247_" class="st2" d="M234.9,511.8c-0.5,0-0.9,0.4-0.9,0.9v1.3h-1.3c-0.5,0-0.9,0.4-0.9,0.9
				c0,0.5,0.4,0.9,0.9,0.9h1.3v1.3c0,0.5,0.4,0.9,0.9,0.9c0.5,0,0.9-0.4,0.9-0.9v-1.3h1.3c0.5,0,0.9-0.4,0.9-0.9
				c0-0.5-0.4-0.9-0.9-0.9h-1.3v-1.3C235.8,512.2,235.4,511.8,234.9,511.8z"/>
			<path id="XMLID_4248_" class="st2" d="M234.9,540c0.5,0,0.9-0.4,0.9-0.9v-1.3h1.3c0.5,0,0.9-0.4,0.9-0.9c0-0.5-0.4-0.9-0.9-0.9
				h-1.3v-1.3c0-0.5-0.4-0.9-0.9-0.9c-0.5,0-0.9,0.4-0.9,0.9v1.3h-1.3c-0.5,0-0.9,0.4-0.9,0.9c0,0.5,0.4,0.9,0.9,0.9h1.3v1.3
				C234,539.6,234.4,540,234.9,540z"/>
			<path id="XMLID_4320_" class="st2" d="M208.4,485.2c-0.5,0-0.9,0.4-0.9,0.9v1.3h-1.3c-0.5,0-0.9,0.4-0.9,0.9
				c0,0.5,0.4,0.9,0.9,0.9h1.3v1.3c0,0.5,0.4,0.9,0.9,0.9c0.5,0,0.9-0.4,0.9-0.9v-1.3h1.3c0.5,0,0.9-0.4,0.9-0.9
				c0-0.5-0.4-0.9-0.9-0.9h-1.3v-1.3C209.2,485.6,208.8,485.2,208.4,485.2z"/>
			<path id="XMLID_4321_" class="st2" d="M186.1,485.2c-0.5,0-0.9,0.4-0.9,0.9v1.3h-1.3c-0.5,0-0.9,0.4-0.9,0.9
				c0,0.5,0.4,0.9,0.9,0.9h1.3v1.3c0,0.5,0.4,0.9,0.9,0.9c0.5,0,0.9-0.4,0.9-0.9v-1.3h1.3c0.5,0,0.9-0.4,0.9-0.9
				c0-0.5-0.4-0.9-0.9-0.9H187v-1.3C187,485.6,186.6,485.2,186.1,485.2z"/>
		</g>
		<text id="XMLID_2957_" transform="matrix(1 0 0 1 179.5037 572.2972)" class="st3 st4 st5">YOUR LOGO</text>
	</g>
	<g id="XMLID_1747_" class="st0">
		<g id="XMLID_2987_" class="st1">
			<path id="XMLID_4323_" class="st2" d="M349.8,494.5c3.4,0,6.2-2.8,6.2-6.2c0-3.4-2.8-6.2-6.2-6.2c-3.4,0-6.2,2.8-6.2,6.2
				C343.6,491.8,346.3,494.5,349.8,494.5z M349.8,485.7c1.5,0,2.7,1.2,2.7,2.7c0,1.5-1.2,2.7-2.7,2.7c-1.5,0-2.7-1.2-2.7-2.7
				C347.1,486.9,348.3,485.7,349.8,485.7z"/>
			<path id="XMLID_4324_" class="st2" d="M325.5,531.6h-1.3v-1.3c0-0.5-0.4-0.9-0.9-0.9c-0.5,0-0.9,0.4-0.9,0.9v1.3H321
				c-0.5,0-0.9,0.4-0.9,0.9c0,0.5,0.4,0.9,0.9,0.9h1.3v1.3c0,0.5,0.4,0.9,0.9,0.9c0.5,0,0.9-0.4,0.9-0.9v-1.3h1.3
				c0.5,0,0.9-0.4,0.9-0.9C326.3,532,325.9,531.6,325.5,531.6z"/>
			<path id="XMLID_4325_" class="st2" d="M329.9,524.6h1.3v1.3c0,0.5,0.4,0.9,0.9,0.9c0.5,0,0.9-0.4,0.9-0.9v-1.3h1.3
				c0.5,0,0.9-0.4,0.9-0.9c0-0.5-0.4-0.9-0.9-0.9H333v-1.3c0-0.5-0.4-0.9-0.9-0.9c-0.5,0-0.9,0.4-0.9,0.9v1.3h-1.3
				c-0.5,0-0.9,0.4-0.9,0.9C329,524.2,329.4,524.6,329.9,524.6z"/>
			<path id="XMLID_4327_" class="st2" d="M378.5,531.6h-1.3v-1.3c0-0.5-0.4-0.9-0.9-0.9c-0.5,0-0.9,0.4-0.9,0.9v1.3h-1.3
				c-0.5,0-0.9,0.4-0.9,0.9c0,0.5,0.4,0.9,0.9,0.9h1.3v1.3c0,0.5,0.4,0.9,0.9,0.9c0.5,0,0.9-0.4,0.9-0.9v-1.3h1.3
				c0.5,0,0.9-0.4,0.9-0.9C379.4,532,379,531.6,378.5,531.6z"/>
			<path id="XMLID_4328_" class="st2" d="M369.6,522.8h-1.3v-1.3c0-0.5-0.4-0.9-0.9-0.9c-0.5,0-0.9,0.4-0.9,0.9v1.3h-1.3
				c-0.5,0-0.9,0.4-0.9,0.9c0,0.5,0.4,0.9,0.9,0.9h1.3v1.3c0,0.5,0.4,0.9,0.9,0.9c0.5,0,0.9-0.4,0.9-0.9v-1.3h1.3
				c0.5,0,0.9-0.4,0.9-0.9C370.5,523.2,370.1,522.8,369.6,522.8z"/>
			<path id="XMLID_4329_" class="st2" d="M369.6,540.5h-1.3v-1.3c0-0.5-0.4-0.9-0.9-0.9c-0.5,0-0.9,0.4-0.9,0.9v1.3h-1.3
				c-0.5,0-0.9,0.4-0.9,0.9c0,0.5,0.4,0.9,0.9,0.9h1.3v1.3c0,0.5,0.4,0.9,0.9,0.9c0.5,0,0.9-0.4,0.9-0.9v-1.3h1.3
				c0.5,0,0.9-0.4,0.9-0.9C370.5,540.9,370.1,540.5,369.6,540.5z"/>
			<path id="XMLID_4331_" class="st2" d="M334.3,540.5H333v-1.3c0-0.5-0.4-0.9-0.9-0.9c-0.5,0-0.9,0.4-0.9,0.9v1.3h-1.3
				c-0.5,0-0.9,0.4-0.9,0.9c0,0.5,0.4,0.9,0.9,0.9h1.3v1.3c0,0.5,0.4,0.9,0.9,0.9c0.5,0,0.9-0.4,0.9-0.9v-1.3h1.3
				c0.5,0,0.9-0.4,0.9-0.9C335.2,540.9,334.8,540.5,334.3,540.5z"/>
			<path id="XMLID_4348_" class="st2" d="M391.3,535.3v-2.8c0-7.7-5.9-14.1-13.4-14.9c-0.7-4.5-4.3-8.1-8.8-8.8
				c-0.4-4.3-2.4-6.5-4-7.6c-0.9-0.6-1.8-0.9-2.5-1.1v-11.8c0-9.7-3.2-15.6-5.9-18.8c-3-3.6-6.1-4.9-6.2-4.9c-0.4-0.2-0.9-0.2-1.3,0
				c-0.1,0.1-3.2,1.3-6.2,4.9c-2.7,3.2-5.9,9.1-5.9,18.8v11.8c-0.7,0.2-1.6,0.5-2.5,1.1c-1.7,1.1-3.6,3.3-4,7.6
				c-4.5,0.7-8.1,4.3-8.8,8.8c-7.5,0.8-13.4,7.2-13.4,14.9v2.8c-5,0.8-8.8,5.2-8.8,10.5c0,5.8,4.8,10.6,10.6,10.6h24.3
				c5.8,0,10.6-4.8,10.6-10.6l0-24.7h9.7v24.7c0,5.8,4.8,10.6,10.6,10.6h24.3c5.8,0,10.6-4.8,10.6-10.6
				C400.1,540.5,396.3,536.2,391.3,535.3z M363.3,504.3c1.6,1.1,2.4,3.2,2.4,6.2v2.7h-3.1v-9.2C362.8,504,363,504.1,363.3,504.3z
				 M340.5,488.3c0-6.8,1.7-12.3,5-16.4c1.7-2.1,3.4-3.2,4.3-3.7c0.9,0.5,2.6,1.7,4.3,3.7c3.3,4.1,5,9.6,5,16.4v13.3v12.5l-3.4,3.4
				h-11.8l-3.4-3.4v-12.5V488.3z M336.9,503.8v9.3h-3.1v-2.6c0,0,0,0,0,0c0,0,0,0,0,0C333.9,506.2,335.5,504.5,336.9,503.8z
				 M334.3,552.9H310c-3.9,0-7.1-3.2-7.1-7.1s3.2-7.1,7.1-7.1c1,0,1.8-0.8,1.8-1.8v-4.4c0-6.3,5.2-11.5,11.5-11.5
				c1,0,1.8-0.8,1.8-1.8c0-3.3,2.3-6.1,5.3-6.8v2.4c0,1,0.8,1.8,1.8,1.8h5.9l3.4,3.4l0,25.8C341.4,549.7,338.2,552.9,334.3,552.9z
				 M389.5,552.9h-24.3c-3.9,0-7.1-3.2-7.1-7.1V520l3.4-3.4h5.9c1,0,1.8-0.8,1.8-1.8v-2.4c3,0.8,5.3,3.6,5.3,6.8
				c0,1,0.8,1.8,1.8,1.8c6.3,0,11.5,5.2,11.5,11.5v4.4c0,1,0.8,1.8,1.8,1.8c3.9,0,7.1,3.2,7.1,7.1S393.4,552.9,389.5,552.9z"/>
		</g>
		<text id="XMLID_1748_" transform="matrix(1 0 0 1 320.9051 572.2972)" class="st3 st4 st5">YOUR LOGO</text>
	</g>
</g>
<g id="XMLID_4355_">
</g>
<text transform="matrix(0.3181 0.9481 -0.9481 0.3181 -24.5868 407.0762)" class="st44 st39" style="font-size:73px;">`</text>
<g>
	<rect x="-5.7" y="-0.4" class="st6" width="456.5" height="320"/>
	<rect x="66.5" y="18.5" class="st7" width="293.4" height="299.1"/>
	<g>
		<g>
			<path class="st8" d="M143.7,299l-77.5,0.1v68.9H361v-68.4h-86.7c-0.4-10.8-8.9-19.3-19.4-19.3c-2.8,0-5.5,0.6-7.9,1.7
				c-1.2-5.2-5.8-9-11.1-9c0,0,0,0,0,0c0-0.2,0-0.4,0-0.6c0-0.3,0.1-0.6,0.1-0.9c0-4-3.1-7.2-6.9-7.2c-0.9,0-1.7,0.2-2.5,0.5
				c-0.4-2.7-2.3-5-4.8-5.8l-3.4-9.3h-5.5l-3.3,9.1c-0.4-0.1-0.9-0.2-1.3-0.2c-3.3,0-6,2.8-6,6.2c0,0.3,0,0.6,0.1,0.9
				c0,0.1,0,0.1,0,0.2c-1-0.4-2-0.6-3.1-0.6c-4.9,0-8.9,4.1-8.9,9.2c-0.3-0.1-0.6-0.1-0.9-0.1c-2.3,0-4.3,1.4-5.2,3.4
				c-3.1-2.1-6.7-3.3-10.7-3.3c-10.7,0-19.4,9-19.4,20.1c0,0.3,0,0.6,0,0.9c0,0.1,0,0.2,0,0.3c-1-1.6-2.8-2.7-4.8-2.7
				c-3.1,0-6,3.2-6,6.5"/>
		</g>
		<g>
			<path class="st8" d="M260.3,263c-0.1-1.1-0.9-1.9-2-1.9c-0.9,0-1.6,0.6-1.9,1.3c-0.4-0.4-0.9-0.7-1.5-0.7c-1.1,0-2,0.9-2,2.1
				c0,0.8,0.4,1.5,1.1,1.8c-0.3,0.4-0.5,0.8-0.5,1.4c0,1.1,0.9,2.1,2,2.1c0.4,0,0.7-0.1,1.1-0.3c0,0,0,0,0,0c0,0.1,0,0.2,0,0.3
				c0,0.8,0.7,1.5,1.5,1.5c0.8,0,1.5-0.7,1.5-1.5c0-0.1,0-0.2,0-0.4c0.3,0.1,0.5,0.1,0.8,0.1c1.6,0,2.9-1.3,2.9-2.9
				C263,264.3,261.8,263.1,260.3,263z"/>
			<path class="st8" d="M189.6,250c-0.1-1.1-0.9-1.9-2-1.9c-0.9,0-1.6,0.6-1.9,1.3c-0.4-0.4-0.9-0.7-1.5-0.7c-1.1,0-2,0.9-2,2.1
				c0,0.8,0.4,1.5,1.1,1.8c-0.3,0.4-0.5,0.8-0.5,1.4c0,1.1,0.9,2.1,2,2.1c0.4,0,0.7-0.1,1.1-0.3c0,0,0,0,0,0c0,0.1,0,0.2,0,0.3
				c0,0.8,0.7,1.5,1.5,1.5c0.8,0,1.5-0.7,1.5-1.5c0-0.1,0-0.2,0-0.4c0.3,0.1,0.5,0.1,0.8,0.1c1.6,0,2.9-1.3,2.9-2.9
				C192.3,251.3,191.1,250.1,189.6,250z"/>
			<path class="st8" d="M269.7,268.3c0-0.5-0.4-0.9-0.9-0.9c-0.4,0-0.7,0.3-0.8,0.6c-0.2-0.2-0.4-0.3-0.7-0.3
				c-0.5,0-0.9,0.4-0.9,0.9c0,0.4,0.2,0.7,0.5,0.8c-0.1,0.2-0.2,0.4-0.2,0.6c0,0.5,0.4,0.9,0.9,0.9c0.2,0,0.3,0,0.5-0.1c0,0,0,0,0,0
				c0,0,0,0.1,0,0.1c0,0.4,0.3,0.7,0.7,0.7s0.7-0.3,0.7-0.7c0-0.1,0-0.1,0-0.2c0.1,0,0.2,0.1,0.4,0.1c0.7,0,1.3-0.6,1.3-1.3
				C270.9,268.9,270.3,268.4,269.7,268.3z"/>
			<path class="st8" d="M202.3,244.8c0-0.6-0.6-1.1-1.2-1.1c-0.5,0-1,0.3-1.1,0.8c-0.2-0.2-0.5-0.4-0.9-0.4c-0.7,0-1.2,0.6-1.2,1.2
				c0,0.5,0.3,0.9,0.6,1.1c-0.2,0.2-0.3,0.5-0.3,0.8c0,0.7,0.5,1.2,1.2,1.2c0.2,0,0.4-0.1,0.6-0.2c0,0,0,0,0,0c0,0.1,0,0.1,0,0.2
				c0,0.5,0.4,0.9,0.9,0.9c0.5,0,0.9-0.4,0.9-0.9c0-0.1,0-0.1,0-0.2c0.1,0,0.3,0.1,0.5,0.1c0.9,0,1.7-0.8,1.7-1.7
				C203.9,245.6,203.2,244.9,202.3,244.8z"/>
			<path class="st8" d="M180.9,259.8c0-0.5-0.4-0.9-0.9-0.9c-0.4,0-0.7,0.3-0.8,0.6c-0.2-0.2-0.4-0.3-0.7-0.3
				c-0.5,0-0.9,0.4-0.9,0.9c0,0.4,0.2,0.7,0.5,0.8c-0.1,0.2-0.2,0.4-0.2,0.6c0,0.5,0.4,0.9,0.9,0.9c0.2,0,0.3,0,0.5-0.1c0,0,0,0,0,0
				c0,0,0,0.1,0,0.1c0,0.4,0.3,0.7,0.7,0.7c0.4,0,0.7-0.3,0.7-0.7c0-0.1,0-0.1,0-0.2c0.1,0,0.2,0.1,0.4,0.1c0.7,0,1.3-0.6,1.3-1.3
				C182.1,260.4,181.6,259.8,180.9,259.8z"/>
			<path class="st8" d="M98.8,170.7c-2,0-3.8,0.6-5.4,1.5c-0.4-5.6-5-10-10.6-10c-1.4,0-2.7,0.3-3.9,0.7c-1.5-5.2-6.2-9-11.8-9
				c-6.8,0-12.4,5.6-12.4,12.6c0,0.2,0,0.4,0,0.5c0,0,0,0,0,0c-6.8,0-12.4,5.6-12.4,12.6c0,7,5.5,12.6,12.4,12.6
				c0.4,0,0.8,0,1.3-0.1h41.6c0.4,0,0.8,0.1,1.2,0.1c5.8,0,10.6-4.8,10.6-10.8C109.4,175.5,104.6,170.7,98.8,170.7z"/>
			<path class="st8" d="M351.6,236.2c1.6,0,3.2,0.5,4.5,1.3c0.3-4.7,4.1-8.4,8.8-8.4c1.1,0,2.2,0.2,3.2,0.6c1.3-4.3,5.2-7.5,9.9-7.5
				c5.7,0,10.3,4.7,10.3,10.5c0,0.1,0,0.3,0,0.4c0,0,0,0,0,0c5.7,0,10.3,4.7,10.3,10.5c0,5.8-4.6,10.5-10.3,10.5
				c-0.4,0-0.7,0-1.1-0.1h-34.6c-0.3,0-0.6,0.1-1,0.1c-4.9,0-8.8-4-8.8-9C342.7,240.2,346.7,236.2,351.6,236.2z"/>
			<path class="st8" d="M73.5,222.9c0.9,0,1.7,0.3,2.5,0.7c0.2-2.6,2.3-4.6,4.8-4.6c0.6,0,1.2,0.1,1.8,0.3c0.7-2.4,2.8-4.1,5.4-4.1
				c3.1,0,5.6,2.6,5.6,5.7c0,0.1,0,0.2,0,0.2c0,0,0,0,0,0c3.1,0,5.6,2.6,5.6,5.7s-2.5,5.7-5.6,5.7c-0.2,0-0.4,0-0.6,0H74
				c-0.2,0-0.3,0-0.5,0c-2.7,0-4.8-2.2-4.8-4.9S70.8,222.9,73.5,222.9z"/>
			<path class="st8" d="M306.1,146.7c-1.1,0-2.2,0.3-3.1,0.9c-0.2-3.2-2.8-5.8-6.1-5.8c-0.7,0-1.4,0.1-2,0.3c-0.9-3-3.6-5.1-6.8-5.1
				c-0.2,0-0.5,0-0.7,0c-3,0.2-5.5,2.2-6.3,5c-0.6-0.2-1.3-0.3-2-0.3c-3.2,0-5.8,2.5-6.1,5.8c-0.9-0.6-2-0.9-3.1-0.9
				c-3.4,0-6.1,2.8-6.1,6.2c0,3.4,2.7,6.2,6.1,6.2c0.2,0,0.4,0,0.7,0h9.3c0.3,0,0.5,0.1,0.8,0.1c0.2,0,0.5,0,0.7,0h13.3
				c0.1,0,0.3,0,0.4,0c0.1,0,0.3,0,0.4,0h9.7c0.2,0,0.4,0,0.7,0c3.4,0,6.1-2.8,6.1-6.2C312.2,149.5,309.5,146.7,306.1,146.7z"/>
		</g>
	</g>
	<g class="st0">
		<g class="st1">
			<text transform="matrix(1.0147 0 0 1 189.5047 255.6882)" class="st9 st10 st11">BUSINESS</text>
			<text transform="matrix(1.0147 0 0 1 171.5179 275.405)" class="st9 st12 st13 st14">START UP</text>
		</g>
		<rect x="177.6" y="286" class="st15" width="68.3" height="13.2"/>
		<text transform="matrix(1.0147 0 0 1 182.2694 288.3854)" class="st1"><tspan x="0" y="0" class="st9 st10 st16">Lorem ipsum dolor sit amet, consectetuer </tspan><tspan x="1.1" y="4" class="st9 st10 st16">adipiscing elit, sed diam nonummy nibh </tspan><tspan x="-1.1" y="8.1" class="st9 st10 st16">euismod tincidunt ut laoreet dolore magna </tspan></text>
		<line class="st17" x1="201.4" y1="280.8" x2="224.9" y2="280.8"/>
	</g>
</g>
<g>
	<g>
		<g>
			<linearGradient id="SVGID_1_" gradientUnits="userSpaceOnUse" x1="213.2332" y1="260.2908" x2="213.2332" y2="284.4538">
				<stop  offset="5.586590e-03" style="stop-color:#F7BD6E"/>
				<stop  offset="0.3391" style="stop-color:#F3A25B"/>
				<stop  offset="1" style="stop-color:#ED6736"/>
			</linearGradient>
			<path class="st18" d="M220.2,260.3h-13.8c0,0-4.5,4.8-3.9,11.7c0,0,1.3-1.5,2.3-2.2c0.2-0.1,0.4,0,0.4,0.2
				c-0.2,1.6,0,6.3,8.1,14.4c8.2-8.1,8.4-12.8,8.1-14.4c0-0.2,0.2-0.4,0.4-0.2c1,0.8,2.3,2.2,2.3,2.2
				C224.7,265,220.2,260.3,220.2,260.3z"/>
		</g>
		<path class="st19" d="M213.2,254.9L213.2,254.9c0,0-8.9,7,0,19.1v0C222.1,261.9,213.2,254.9,213.2,254.9z"/>
		<path class="st8" d="M213.2,259.4L213.2,259.4c0,0-5.3,4.2,0,11.4v0C218.5,263.6,213.2,259.4,213.2,259.4z"/>
	</g>
	<g>
		<path class="st20" d="M203.3,257.1l1,1.9c0.4,0.8,1.3,1.3,2.2,1.3h6.7h0h6.7c0.9,0,1.8-0.5,2.2-1.3l1-1.9H203.3z"/>
		<path class="st21" d="M200.4,253.4l1.3,2.5c0.6,1.1,1.7,1.7,2.8,1.7h8.6h0h8.6c1.2,0,2.3-0.7,2.8-1.7l1.3-2.5H200.4z"/>
	</g>
	<g>
		<g>
			<path class="st22" d="M225.4,234.3c0,0,21.7,7.4,20.3,29.2c0,0-18.3-18.6-28.2-14.6L225.4,234.3z"/>
		</g>
		<g>
			<path class="st22" d="M201,234.3c0,0-21.7,7.4-20.3,29.2c0,0,18.3-18.6,28.2-14.6L201,234.3z"/>
		</g>
	</g>
	<path class="st22" d="M223.7,192.6c-2.5-6.3-5.9-12.4-10.5-18.1l0,0l0,0c-4.6,5.6-8,11.7-10.5,17.9
		C207.6,191.3,214.9,190.5,223.7,192.6z"/>
	<path class="st8" d="M224,193.4L224,193.4l-0.3-0.7c-11.6-3-21-0.2-21-0.2l-0.4,0.9c0,0,0,0,0,0c-9.6,24.8-5.2,51.8-3.7,59.4
		c0.2,1.2,1.3,2.1,2.6,2.1h1.6h20.8h1.5c1.3,0,2.3-0.9,2.6-2.1C229.2,245.1,233.5,218.2,224,193.4z"/>
	<g>
		<circle class="st23" cx="212.7" cy="212.7" r="8.9"/>
		
			<ellipse transform="matrix(0.9256 -0.3785 0.3785 0.9256 -64.8026 96.5286)" class="st24" cx="213.1" cy="213.1" rx="6.8" ry="6.8"/>
		<circle class="st25" cx="212.7" cy="212.7" r="6.7"/>
		<g class="st26">
			<path class="st27" d="M213.1,207.1c2.7,0,5,1.6,6.1,3.8c-0.8-2.9-3.4-4.9-6.5-4.9c-3.7,0-6.7,3-6.7,6.7c0,1.1,0.2,2,0.7,2.9
				c-0.2-0.6-0.2-1.2-0.2-1.8C206.4,210.1,209.4,207.1,213.1,207.1z"/>
		</g>
	</g>
	<path class="st22" d="M213.2,237c-7.3,16.5,0,30.8,0,30.8S220.5,253.5,213.2,237z"/>
</g>
<g class="st0">
	<g class="st1">
		<g>
			<g>
				<polygon class="st28" points="44.4,22.9 85.9,31 85.9,81.4 46,72.7 				"/>
				<polygon class="st6" points="137.3,22.9 95.8,31 95.8,81.4 135.7,72.7 				"/>
				<rect x="85.9" y="31" class="st6" width="9.9" height="50.4"/>
				<path class="st29" d="M90.9,31c0,0,2.7-8.3,16.1-10.7s22.5,4,26.9,3.3L95.8,31H90.9z"/>
				<path class="st29" d="M90.8,31c0,0-2.7-8.3-16.1-10.7s-22.5,4-26.9,3.3L85.8,31H90.8z"/>
			</g>
			<line class="st30" x1="96" y1="38.6" x2="95.9" y2="80.6"/>
			<path class="st8" d="M68.2,62.4c0-1.3,1.1-2.4,2.4-2.4c0.5,0,3,3.8,5.3,7c1.6,2.3,3.1,4.3,3.7,4.4c1.4,0.3,1-1.4,1-1.4
				s-9-15.4-9-15.9c0-1.3,1.1-2.4,2.4-2.4c0.9,0,10.7,16.6,11.7,16.6s0.7-1.7,0.7-1.7S76.1,49,76.1,48.3c0-1.3,1.1-2.4,2.4-2.4
				c1,0,12.4,18.3,12.4,18.3s0.7,1,1.4,0.7s0-1.7,0-1.7s-8.6-15.2-8.6-15.9c0-1.3,1.1-2.4,2.4-2.4c1.1,0,14.8,22.8,14.8,22.8
				c1,1,3.1,0,3.1,0l3.9-6.3l0,0c0.5-0.8,1.3-1.3,2.3-1.3c1.5,0,2.8,1.2,2.8,2.8c0,0.6-0.2,1.1-0.5,1.6l-9.8,17
				c-3.5,7.6-8.3,9.3-8.3,9.3s-1,0.3-5.5,0.3S81,85.2,81,85.2l-5.2-9C75.8,76.3,68.2,63.2,68.2,62.4z"/>
			<path class="st31" d="M53.9,24.7c0,0,7.3-3.7,19.5-2.4"/>
			<path class="st31" d="M71.7,25.3c0,0,10.2,0.4,17,5.7"/>
			<path class="st31" d="M76,22.9c0,0,9.9,2.4,13.9,8.1"/>
			<path class="st31" d="M127.4,24.7c0,0-12.1-4.7-19.2-1.4"/>
			<path class="st31" d="M94.7,31c0,0,6-6.9,15.9-6.5"/>
			<path class="st32" d="M113.8,24.5c0,0,4.9,0,8.3,1.2"/>
		</g>
		<g>
			<g>
				<polyline class="st6" points="67,0.7 70.1,1.7 71.4,5.5 67.6,3.4 				"/>
				<polyline class="st6" points="64.5,2 63.3,5 65.4,8.4 66.2,4.2 				"/>
				<path class="st6" d="M66.1,4.9l2.1-1c0.1,0,0.2,0,0.3,0.1v0c0.2,0.3,0.5,0.2,0.4-0.1c-0.2-1-0.6-2.2-1.2-3.4
					c-1.5-3-3.6-5-4.7-4.5c-1.1,0.5-0.8,3.4,0.6,6.4c0.6,1.3,1.3,2.3,2,3.1c0.2,0.2,0.4,0.1,0.3-0.2l0-0.1C66,5.1,66,4.9,66.1,4.9z"
					/>
			</g>
			<path class="st6" d="M66.8,5.8c-0.1-0.1-0.1-0.4,0.1-0.5L67.4,5L68,4.8c0.2-0.1,0.4,0,0.4,0.2l0.1,0.9l0,0.7
				c0,0.2-0.3,0.4-0.5,0.2l-0.5-0.5L66.8,5.8z"/>
		</g>
		<g>
			<g>
				<path class="st33" d="M87.9,8.8c0,0,1.6-0.3,2.2-0.6V8l-0.2-0.1l-2,0.5l-0.2,0.5L87.9,8.8z"/>
				<g>
					<path class="st6" d="M83.6,8l-1.9,0.8c0,0,1.6,2.1,5.2,1.2L88,8.7l-0.7-1.4l-2-0.7L83.6,8z"/>
					<path class="st6" d="M90.1,8C90.1,8,90.1,8,90.1,8L90.1,8c0-1.8-1.5-3.2-3.2-3.2S83.6,6.2,83.6,8c0,0,0,0,0,0c0,0,0,0,0,0.1
						C83.6,8,86.9,9.7,90.1,8L90.1,8C90.1,8,90.1,8,90.1,8z"/>
				</g>
			</g>
			<path class="st34" d="M87.8,4.9c0,0-1.8,1.1-2.5,3.7"/>
			<path class="st34" d="M87.4,4.8c0,0-1.9,0.8-2.6,3.6"/>
		</g>
		<g>
			<g>
				
					<rect x="84.9" y="-7.5" transform="matrix(0.7071 -0.7071 0.7071 0.7071 31.418 63.0284)" class="st6" width="13.9" height="2.2"/>
				<line class="st33" x1="96.7" y1="-9.8" x2="95.7" y2="-10.7"/>
				<line class="st33" x1="96.4" y1="-9.5" x2="95.8" y2="-10"/>
				<line class="st33" x1="96.1" y1="-9.2" x2="95.1" y2="-10.1"/>
				<line class="st33" x1="95.8" y1="-8.9" x2="95.2" y2="-9.4"/>
				<line class="st33" x1="95.5" y1="-8.6" x2="94.5" y2="-9.5"/>
				<line class="st33" x1="95.2" y1="-8.3" x2="94.6" y2="-8.8"/>
				<line class="st33" x1="94.9" y1="-8" x2="93.9" y2="-8.9"/>
				<line class="st33" x1="94.6" y1="-7.7" x2="94" y2="-8.2"/>
				<line class="st33" x1="94.3" y1="-7.4" x2="93.3" y2="-8.3"/>
				<line class="st33" x1="94" y1="-7.1" x2="93.4" y2="-7.6"/>
				<line class="st33" x1="93.7" y1="-6.8" x2="92.7" y2="-7.7"/>
				<line class="st33" x1="93.4" y1="-6.5" x2="92.8" y2="-7"/>
				<line class="st33" x1="93.1" y1="-6.2" x2="92.1" y2="-7.1"/>
				<line class="st33" x1="92.8" y1="-5.9" x2="92.2" y2="-6.4"/>
				<line class="st33" x1="92.5" y1="-5.6" x2="91.5" y2="-6.5"/>
				<line class="st33" x1="92.2" y1="-5.3" x2="91.6" y2="-5.8"/>
				<line class="st33" x1="91.9" y1="-5" x2="90.9" y2="-5.9"/>
				<line class="st33" x1="91.6" y1="-4.6" x2="91" y2="-5.2"/>
				<line class="st33" x1="91.3" y1="-4.4" x2="90.3" y2="-5.3"/>
				<line class="st33" x1="91" y1="-4" x2="90.4" y2="-4.6"/>
				<line class="st33" x1="90.7" y1="-3.8" x2="89.7" y2="-4.7"/>
				<line class="st33" x1="90.3" y1="-3.4" x2="89.8" y2="-4"/>
				<line class="st33" x1="90.1" y1="-3.2" x2="89.1" y2="-4.1"/>
				<line class="st33" x1="89.7" y1="-2.8" x2="89.2" y2="-3.4"/>
				<line class="st33" x1="89.5" y1="-2.5" x2="88.5" y2="-3.5"/>
				<line class="st33" x1="89.1" y1="-2.2" x2="88.6" y2="-2.8"/>
				<line class="st33" x1="88.8" y1="-1.9" x2="87.9" y2="-2.9"/>
				<line class="st33" x1="88.5" y1="-1.6" x2="88" y2="-2.2"/>
				<line class="st33" x1="88.2" y1="-1.3" x2="87.3" y2="-2.3"/>
				<line class="st33" x1="87.9" y1="-1" x2="87.4" y2="-1.6"/>
			</g>
			<g>
				<path class="st6" d="M87.2-8.2l0.6-0.6c0.1-0.1,0.3-0.1,0.4,0L95-2c0.1,0.1,0.1,0.3,0,0.4L94.3-1c-0.1,0.1-0.3,0.1-0.4,0
					c-1-1.1-5.6-5.7-6.7-6.8C87-7.9,87-8.1,87.2-8.2z"/>
				<path class="st35" d="M95.1-2l0.4,1.4L94-0.9C94-0.9,94.2-1.8,95.1-2"/>
				
					<rect x="87.7" y="-7.9" transform="matrix(0.7071 -0.7071 0.7071 0.7071 31.2586 60.2844)" class="st35" width="1.5" height="0.6"/>
			</g>
		</g>
		<path class="st6" d="M116.3,6.1c0-0.2,0-0.3,0-0.5l1.6-1.3L117,3l-1.8,0.8c-0.3-0.3-0.6-0.5-1-0.6l-0.3-1.9h-1.5L112.1,3
			c-0.4,0.1-0.8,0.4-1.2,0.6L109.5,3l-0.9,1.3l1.3,1.1c-0.1,0.2-0.1,0.5-0.1,0.7c0,0.2,0,0.5,0.1,0.7l-1.3,1.7l1.1,1.1l1.4-1
			c0.3,0.2,0.6,0.4,1,0.5l0.3,1.9l1.5,0l0.3-2c0.3-0.1,0.5-0.3,0.8-0.4l1.5,0.9l1-1.2L116.2,7C116.2,6.7,116.3,6.4,116.3,6.1z
			 M114.3,7.3c-1.3,1-2.7,0-2.5-1.3c0.1-0.6,0.6-1.1,1.2-1.2C114.3,4.6,115.3,6,114.3,7.3z"/>
		<path class="st36" d="M69.1,7.9c0,0,2.8,4.3,4.3,8.3"/>
		<path class="st36" d="M66.9,8.9c0,0,2,2.8,2.4,4"/>
		<line class="st37" x1="70.5" y1="14.8" x2="70.5" y2="15.4"/>
		<path class="st36" d="M86.7,11.1c0,0,1,5.7,1,8.5s0,2.4,0,2.4"/>
		<path class="st36" d="M90,11.1c0,0,1.6,9.3,0.8,14.6"/>
		<path class="st36" d="M95.2,0.8c0,0,4.3,9.3,4,18.8"/>
		<path class="st36" d="M97.2-5.5c0,0,3.2,7.3,4.3,17.4"/>
		<path class="st36" d="M92.2,0c0,0,2.6,6.5,3.2,14.2"/>
		<path class="st36" d="M109.8,10.9c0,0-1.6,3.6-1.6,6.1"/>
		<path class="st36" d="M107.6,8.9c0,0-3.1,5.5-2.9,11.8"/>
		<circle class="st36" cx="72.5" cy="8.7" r="0.8"/>
		<circle class="st36" cx="74.2" cy="17.8" r="0.8"/>
		<circle class="st36" cx="101.9" cy="13.9" r="0.8"/>
		<circle class="st36" cx="96.4" cy="17.4" r="0.8"/>
		<circle class="st36" cx="87.7" cy="23.9" r="0.8"/>
		<circle class="st36" cx="108.2" cy="18.6" r="0.8"/>
		<circle class="st36" cx="80.2" cy="9.5" r="0.8"/>
		<circle class="st36" cx="75" cy="3.8" r="0.8"/>
		<circle class="st36" cx="102.7" cy="-3.1" r="0.8"/>
	</g>
	<g>
		<g class="st38">
			
				<image style="overflow:visible;" width="615" height="540" xlink:href="4F9C59E2.png"  transform="matrix(0.24 0 0 0.24 5.76 18)">
			</image>
		</g>
		<text transform="matrix(0.9996 2.839000e-02 -2.839000e-02 0.9996 41.0055 87.4346)" class="st6 st39 st40">Creare</text>
	</g>
</g>
<g class="st0">
	<text transform="matrix(1 0 0 1 43.5846 89.7916)" class="st41 st39 st42">Creare Foundation</text>
	<text transform="matrix(1 0 0 1 42.3736 89.7828)" class="st43 st39 st42">Creare Foundation</text>
</g>
<text transform="matrix(0.3181 0.9481 -0.9481 0.3181 66.1215 86.3617)" class="st44 st39 st45">`</text>
<rect x="351" y="299.7" class="st8" width="99" height="68.4"/>
<rect x="-6.5" y="298.6" class="st8" width="102.4" height="69.4"/>
<text transform="matrix(1 0 0 1 197.79 114.4177)"><tspan x="0" y="0" class="st46 st47 st48">AUG</tspan><tspan x="-3.1" y="27.7" class="st8 st47 st48">15th</tspan><tspan x="-4" y="55.4" class="st49 st47 st48">6 pm</tspan></text>
<g class="st0">
	<g class="st1">
		<g>
			<g>
				<polygon class="st28" points="186.4,268.5 211.3,273.3 211.3,303.6 187.4,298.4 				"/>
				<polygon class="st6" points="242.2,268.5 217.3,273.3 217.3,303.6 241.3,298.4 				"/>
				<rect x="211.3" y="273.3" class="st6" width="6" height="30.3"/>
				<path class="st50" d="M214.3,273.3c0,0,1.6-5,9.7-6.4s13.5,2.4,16.2,2l-22.9,4.5H214.3z"/>
				<path class="st50" d="M214.3,273.3c0,0-1.6-5-9.7-6.4s-13.5,2.4-16.2,2l22.9,4.5H214.3z"/>
			</g>
			<line class="st51" x1="217.4" y1="277.9" x2="217.3" y2="303.1"/>
			<path class="st8" d="M200.7,292.2c0-0.8,0.7-1.5,1.5-1.5c0.3,0,1.8,2.3,3.2,4.2c1,1.4,1.9,2.6,2.2,2.7c0.8,0.2,0.6-0.8,0.6-0.8
				s-5.4-9.2-5.4-9.5c0-0.8,0.7-1.5,1.5-1.5c0.5,0,6.4,10,7.1,10c0.6,0,0.4-1,0.4-1s-6.2-10.6-6.2-11c0-0.8,0.7-1.5,1.5-1.5
				c0.6,0,7.5,11,7.5,11s0.4,0.6,0.8,0.4s0-1,0-1s-5.2-9.1-5.2-9.5c0-0.8,0.7-1.5,1.5-1.5c0.7,0,8.9,13.7,8.9,13.7
				c0.6,0.6,1.9,0,1.9,0l2.3-3.8l0,0c0.3-0.5,0.8-0.8,1.4-0.8c0.9,0,1.7,0.7,1.7,1.7c0,0.4-0.1,0.7-0.3,1l-5.9,10.2
				c-2.1,4.6-5,5.6-5,5.6s-0.6,0.2-3.3,0.2c-2.7,0-4.8-3.5-4.8-3.5l-3.1-5.4C205.3,300.5,200.7,292.7,200.7,292.2z"/>
			<path class="st52" d="M192.1,269.6c0,0,4.4-2.2,11.7-1.5"/>
			<path class="st52" d="M202.8,269.9c0,0,6.1,0.2,10.2,3.4"/>
			<path class="st52" d="M205.4,268.5c0,0,5.9,1.5,8.4,4.9"/>
			<path class="st52" d="M236.3,269.6c0,0-7.3-2.8-11.6-0.9"/>
			<path class="st52" d="M216.6,273.3c0,0,3.6-4.1,9.6-3.9"/>
			<path class="st53" d="M228.1,269.4c0,0,2.9,0,5,0.7"/>
		</g>
		<g>
			<g>
				<polyline class="st6" points="200,255.2 201.8,255.7 202.6,258 200.3,256.8 				"/>
				<polyline class="st6" points="198.5,255.9 197.7,257.7 199,259.8 199.5,257.2 				"/>
				<path class="st6" d="M199.4,257.7l1.2-0.6c0.1,0,0.1,0,0.2,0.1l0,0c0.1,0.2,0.3,0.1,0.2-0.1c-0.1-0.6-0.4-1.3-0.7-2
					c-0.9-1.8-2.1-3-2.8-2.7c-0.7,0.3-0.5,2.1,0.4,3.9c0.4,0.8,0.8,1.4,1.2,1.9c0.1,0.1,0.3,0,0.2-0.1l0-0.1
					C199.4,257.8,199.4,257.7,199.4,257.7z"/>
			</g>
			<path class="st6" d="M199.8,258.2c-0.1-0.1-0.1-0.2,0-0.3l0.4-0.2l0.4-0.2c0.1-0.1,0.2,0,0.2,0.1l0,0.6l0,0.4
				c0,0.1-0.2,0.2-0.3,0.1l-0.3-0.3L199.8,258.2z"/>
		</g>
		<g>
			<g>
				<path class="st54" d="M212.5,260c0,0,1-0.2,1.3-0.4v-0.1l-0.1-0.1l-1.2,0.3l-0.1,0.3L212.5,260z"/>
				<g>
					<path class="st6" d="M209.9,259.5l-1.2,0.5c0,0,1,1.2,3.1,0.7l0.7-0.8l-0.4-0.8l-1.2-0.4L209.9,259.5z"/>
					<path class="st6" d="M213.8,259.5C213.8,259.5,213.8,259.5,213.8,259.5L213.8,259.5c0-1.1-0.9-1.9-1.9-1.9s-1.9,0.9-1.9,1.9
						c0,0,0,0,0,0c0,0,0,0,0,0C209.9,259.5,212,260.5,213.8,259.5L213.8,259.5C213.8,259.5,213.8,259.5,213.8,259.5z"/>
				</g>
			</g>
			<path class="st55" d="M212.4,257.7c0,0-1.1,0.7-1.5,2.2"/>
			<path class="st55" d="M212.2,257.6c0,0-1.2,0.5-1.6,2.2"/>
		</g>
		<g>
			<g>
				
					<rect x="210.7" y="250.2" transform="matrix(0.7071 -0.7071 0.7071 0.7071 -114.4647 225.417)" class="st6" width="8.3" height="1.3"/>
				<line class="st54" x1="217.8" y1="248.9" x2="217.2" y2="248.3"/>
				<line class="st54" x1="217.6" y1="249" x2="217.3" y2="248.7"/>
				<line class="st54" x1="217.4" y1="249.2" x2="216.9" y2="248.6"/>
				<line class="st54" x1="217.3" y1="249.4" x2="216.9" y2="249.1"/>
				<line class="st54" x1="217.1" y1="249.6" x2="216.5" y2="249"/>
				<line class="st54" x1="216.9" y1="249.8" x2="216.6" y2="249.4"/>
				<line class="st54" x1="216.7" y1="249.9" x2="216.1" y2="249.4"/>
				<line class="st54" x1="216.5" y1="250.1" x2="216.2" y2="249.8"/>
				<line class="st54" x1="216.4" y1="250.3" x2="215.8" y2="249.7"/>
				<line class="st54" x1="216.2" y1="250.5" x2="215.9" y2="250.2"/>
				<line class="st54" x1="216" y1="250.7" x2="215.4" y2="250.1"/>
				<line class="st54" x1="215.8" y1="250.9" x2="215.5" y2="250.5"/>
				<line class="st54" x1="215.6" y1="251" x2="215.1" y2="250.4"/>
				<line class="st54" x1="215.5" y1="251.2" x2="215.1" y2="250.9"/>
				<line class="st54" x1="215.3" y1="251.4" x2="214.7" y2="250.8"/>
				<line class="st54" x1="215.1" y1="251.6" x2="214.8" y2="251.3"/>
				<line class="st54" x1="214.9" y1="251.8" x2="214.3" y2="251.2"/>
				<line class="st54" x1="214.7" y1="251.9" x2="214.4" y2="251.6"/>
				<line class="st54" x1="214.5" y1="252.1" x2="214" y2="251.5"/>
				<line class="st54" x1="214.4" y1="252.3" x2="214" y2="252"/>
				<line class="st54" x1="214.2" y1="252.5" x2="213.6" y2="251.9"/>
				<line class="st54" x1="214" y1="252.7" x2="213.7" y2="252.3"/>
				<line class="st54" x1="213.8" y1="252.8" x2="213.2" y2="252.3"/>
				<line class="st54" x1="213.6" y1="253" x2="213.3" y2="252.7"/>
				<line class="st54" x1="213.5" y1="253.2" x2="212.9" y2="252.6"/>
				<line class="st54" x1="213.3" y1="253.4" x2="213" y2="253.1"/>
				<line class="st54" x1="213.1" y1="253.6" x2="212.5" y2="253"/>
				<line class="st54" x1="212.9" y1="253.7" x2="212.6" y2="253.4"/>
				<line class="st54" x1="212.7" y1="253.9" x2="212.2" y2="253.3"/>
				<line class="st54" x1="212.6" y1="254.1" x2="212.2" y2="253.8"/>
			</g>
			<g>
				<path class="st6" d="M212.1,249.8l0.4-0.4c0.1-0.1,0.2-0.1,0.3,0l4.1,4.1c0.1,0.1,0.1,0.2,0,0.3l-0.4,0.4
					c-0.1,0.1-0.2,0.1-0.3,0c-0.6-0.6-3.4-3.5-4.1-4.1C212,250,212,249.9,212.1,249.8z"/>
				<path class="st35" d="M216.8,253.5l0.2,0.8l-0.9-0.2C216.2,254.2,216.3,253.7,216.8,253.5"/>
				
					<rect x="212.4" y="250" transform="matrix(0.7071 -0.7071 0.7071 0.7071 -114.5604 223.7685)" class="st35" width="0.9" height="0.4"/>
			</g>
		</g>
		<path class="st6" d="M229.6,258.4c0-0.1,0-0.2,0-0.3l0.9-0.8l-0.5-0.8l-1.1,0.5c-0.2-0.2-0.4-0.3-0.6-0.4l-0.2-1.2h-0.9l-0.1,1.1
			c-0.3,0.1-0.5,0.2-0.7,0.4l-0.9-0.4l-0.5,0.8l0.8,0.7c0,0.1,0,0.3,0,0.4c0,0.1,0,0.3,0,0.4l-0.8,1l0.6,0.7l0.8-0.6
			c0.2,0.1,0.4,0.3,0.6,0.3l0.2,1.2l0.9,0l0.2-1.2c0.2-0.1,0.3-0.2,0.5-0.3l0.9,0.5l0.6-0.7l-0.8-0.9
			C229.6,258.8,229.6,258.6,229.6,258.4z M228.4,259.1c-0.8,0.6-1.6,0-1.5-0.8c0.1-0.4,0.4-0.7,0.7-0.7
			C228.4,257.5,229,258.3,228.4,259.1z"/>
		<path class="st56" d="M201.2,259.5c0,0,1.7,2.6,2.6,5"/>
		<path class="st56" d="M199.9,260.1c0,0,1.2,1.7,1.5,2.4"/>
		<line class="st57" x1="202.1" y1="263.6" x2="202.1" y2="264"/>
		<path class="st56" d="M211.8,261.4c0,0,0.6,3.4,0.6,5.1c0,1.7,0,1.5,0,1.5"/>
		<path class="st56" d="M213.8,261.4c0,0,1,5.6,0.5,8.8"/>
		<path class="st56" d="M216.9,255.2c0,0,2.6,5.6,2.4,11.3"/>
		<path class="st56" d="M218.1,251.4c0,0,1.9,4.4,2.6,10.5"/>
		<path class="st56" d="M215.1,254.7c0,0,1.6,3.9,1.9,8.5"/>
		<path class="st56" d="M225.7,261.3c0,0-1,2.2-1,3.6"/>
		<path class="st56" d="M224.4,260.1c0,0-1.8,3.3-1.8,7.1"/>
		<circle class="st56" cx="203.3" cy="259.9" r="0.5"/>
		<circle class="st56" cx="204.3" cy="265.4" r="0.5"/>
		<circle class="st56" cx="220.9" cy="263.1" r="0.5"/>
		<circle class="st56" cx="217.7" cy="265.2" r="0.5"/>
		<circle class="st56" cx="212.4" cy="269.1" r="0.5"/>
		<circle class="st56" cx="224.7" cy="265.9" r="0.5"/>
		<circle class="st56" cx="207.9" cy="260.4" r="0.5"/>
		<circle class="st56" cx="204.8" cy="257" r="0.5"/>
		<circle class="st56" cx="221.4" cy="252.9" r="0.5"/>
	</g>
	<g>
		<g class="st38">
			
				<image style="overflow:visible;" width="462" height="423" xlink:href="4F9C59E6.png"  transform="matrix(0.24 0 0 0.24 153.84 250.8)">
			</image>
		</g>
		<text transform="matrix(0.9996 2.839000e-02 -2.839000e-02 0.9996 189.5572 303.9611)" class="st6 st39 st58">Creare</text>
	</g>
</g>
<g class="st0">
	<text transform="matrix(1 0 0 1 185.9088 308.6773)" class="st41 st39 st59">Creare Foundation</text>
	<text transform="matrix(1 0 0 1 185.1823 308.6714)" class="st43 st39 st59">Creare Foundation</text>
</g>
<text transform="matrix(0.3181 0.9481 -0.9481 0.3181 202.3715 303.3726)" class="st44 st39 st60">`</text>
<text transform="matrix(1 0 0 1 134.8693 78.5074)" class="st8 st39 st61">Creare Foumdation</text>
<text transform="matrix(-0.2893 -0.569 0.8914 -0.4533 218.4444 58.327)" class="st8 st39 st62"></text>
<text transform="matrix(1 0 0 1 112.7789 29.604)"><tspan x="0" y="0" class="st46 st63 st64">Launc</tspan><tspan x="79.9" y="0" class="st8 st63 st64">hing </tspan><tspan x="142.7" y="0" class="st49 st63 st64">Soon</tspan></text>
<g>
	<polygon class="st8" points="361.6,153.4 359.9,159.2 354.1,160.9 359.9,162.6 361.6,168.4 363.3,162.6 369.1,160.9 363.3,159.2 	
		"/>
	<polygon class="st8" points="319.5,242.9 317.8,248.7 312,250.4 317.8,252 319.5,257.9 321.2,252 327,250.4 321.2,248.7 	"/>
	<polygon class="st8" points="321.7,204.5 320.1,210.3 314.2,212 320.1,213.6 321.7,219.4 323.4,213.6 329.2,212 323.4,210.3 	"/>
	<polygon class="st8" points="436.4,222.2 434.8,228.1 429,229.7 434.8,231.4 436.4,237.2 438.1,231.4 443.9,229.7 438.1,228.1 	"/>
	<polygon class="st8" points="364,65.5 362.3,71.3 356.5,73 362.3,74.7 364,80.5 365.6,74.7 371.5,73 365.6,71.3 	"/>
	<polygon class="st8" points="300.2,99.5 298.5,105.3 292.7,106.9 298.5,108.6 300.2,114.4 301.8,108.6 307.6,106.9 301.8,105.3 	
		"/>
	<polygon class="st8" points="121.4,71 119.7,76.8 113.9,78.5 119.7,80.2 121.4,86 123,80.2 128.8,78.5 123,76.8 	"/>
	<polygon class="st8" points="154.9,124.6 153.2,130.4 147.4,132.1 153.2,133.7 154.9,139.5 156.5,133.7 162.3,132.1 156.5,130.4 	
		"/>
	<polygon class="st8" points="57.2,206 55.5,211.9 49.7,213.5 55.5,215.2 57.2,221 58.8,215.2 64.6,213.5 58.8,211.9 	"/>
	<polygon class="st8" points="136.5,206.2 134.8,212 129,213.7 134.8,215.3 136.5,221.1 138.1,215.3 143.9,213.7 138.1,212 	"/>
	<polygon class="st8" points="81.8,91.5 77.6,106.3 62.7,110.6 77.6,114.8 81.8,129.7 86.1,114.8 100.9,110.6 86.1,106.3 	"/>
</g>
</svg>
